<svg width="444" height="261" viewBox="0 0 444 261" fill="none" xmlns="http://www.w3.org/2000/svg">
<g filter="url(#filter0_df_353_210)">
<path d="M14.2452 242C22.2358 232.297 55.6007 200.312 57.1476 197.481H386.54L429.755 242H14.2452Z" fill="#391505"/>
</g>
<path d="M286.956 187.788C290.786 179.628 275.467 164.474 274.509 162.143C277.701 161.365 285.039 163.029 289.828 162.143C297.029 160.81 299.052 182.071 301.317 191.286C300.36 192.84 297.105 196.648 291.743 199.446C286.381 202.243 281.85 200.611 280.254 199.446C279.28 195.665 283.892 194.316 286.956 187.788Z" fill="black"/>
<path d="M307.042 183.212C305.511 180.414 308.019 167.583 309.934 162.143L320.466 159.811C321.104 166.417 323.414 180.414 321.882 183.212C319.967 186.709 319.508 185.505 320.466 190.168C321.423 194.831 320.801 199.106 317.593 200.66C315.35 201.747 309.83 200.017 307.042 198.623C305.062 197.632 306.546 191.792 308.977 189.003C311.038 186.637 308.957 186.709 307.042 183.212Z" fill="black"/>
<g filter="url(#filter1_f_353_210)">
<path d="M279.662 215.249C283.48 221.93 268.209 234.338 267.255 236.247C270.436 236.883 277.944 237.774 282.526 236.247C287.107 234.72 292.07 219.703 293.979 212.386C293.024 211.114 289.779 207.996 284.434 205.705C279.09 203.414 274.572 204.751 272.981 205.705C273.936 206.659 276.608 209.905 279.662 215.249Z" fill="black" fill-opacity="0.51"/>
<path d="M298.751 220.021C297.224 222.312 300.66 231.793 302.569 236.247L313.067 238.156C313.704 232.747 314.595 221.358 313.067 219.067C311.159 216.204 312.113 215.249 313.067 211.432C314.022 207.614 312.113 205.705 310.204 202.842C308.295 199.978 301.614 205.705 299.705 206.659C297.797 207.614 298.751 210.477 301.614 212.386C304.478 214.295 300.66 217.158 298.751 220.021Z" fill="black" fill-opacity="0.51"/>
</g>
<path d="M168.305 201.159C162.358 202.15 150.958 180.095 146.002 168.943H162.11C163.349 172.247 166.57 179.104 169.544 180.095C172.518 181.086 176.565 178.03 178.217 176.378C181.108 175.965 186.643 176.13 185.652 180.095C184.413 185.051 178.217 188.768 174.5 191.246C170.783 193.724 175.739 199.919 168.305 201.159Z" fill="#0D0E09"/>
<path d="M171.232 200.022C168.341 201.674 162.358 201.654 158.393 198.68C156.595 197.332 157.698 193.004 160.706 188.493C160.706 182.979 164.583 174.697 167.066 170.182L185.652 168.943C185.652 168.943 177.248 186.989 173.237 192.503C171.45 194.96 171.232 200.022 171.232 200.022Z" fill="black"/>
<g opacity="0.5" filter="url(#filter2_f_353_210)">
<path d="M166.835 205.56C161.06 203.829 146.976 224.274 140.656 234.713L156.635 236.74C158.28 233.618 162.339 227.222 165.414 226.613C168.488 226.003 172.119 229.545 173.55 231.392C176.366 232.165 181.877 232.698 181.393 228.64C180.788 223.567 175.109 219.1 171.734 216.173C168.358 213.247 174.054 207.725 166.835 205.56Z" fill="black" fill-opacity="0.96"/>
</g>
<g opacity="0.5" filter="url(#filter3_f_353_210)">
<path d="M156.69 206.772C152.382 209.223 158.241 227.368 161.708 236.134L179.99 239.702L170.055 209.716C167.395 207.713 160.998 204.32 156.69 206.772Z" fill="#0D0D0D" fill-opacity="0.89"/>
</g>
<path d="M80.0984 222.661V168.702H100.596V190.387L80.0984 222.661Z" fill="url(#paint0_linear_353_210)"/>
<path d="M362.421 223.165V169.207H341.924V190.891L362.421 223.165Z" fill="url(#paint1_linear_353_210)"/>
<rect x="71.3208" y="168.943" width="9.13208" height="53.6509" fill="#271802"/>
<rect x="362.406" y="168.943" width="9.13208" height="53.6509" fill="#32220B"/>
<rect x="32.5094" y="158.67" width="378.981" height="12.5566" fill="#180E02"/>
<rect x="32.5094" y="158.67" width="378.981" height="12.5566" fill="url(#paint2_linear_353_210)" fill-opacity="0.7"/>
<path d="M389.493 133.695H58.0535L32.1416 159.414H411.151L389.493 133.695Z" fill="url(#paint3_linear_353_210)"/>
<path d="M143.171 2.40333C135.741 3.25737 144.802 17.618 144.437 19.1811C148.015 21.115 153.826 23.3501 148.442 16.8193C143.058 10.2885 145.474 7.33606 147.355 6.67621C148.388 4.71947 157.368 0.77168 143.171 2.40333Z" fill="#CAC3B6"/>
<path d="M169.968 2.851C162.91 0.537296 164.509 17.6309 163.47 18.927C165.802 22.2143 170 26.7136 168.14 18.4121C166.279 10.1105 169.79 8.3842 171.779 8.55873C173.596 7.17688 183.452 7.27134 169.968 2.851Z" fill="#CAC3B6"/>
<path d="M185.872 124.23C194.792 139.84 175.086 146.113 151.791 146.113C127.268 143.557 115.645 141.547 118.024 122.595C119.051 114.415 125.542 122.084 148.836 122.084C172.13 122.084 180.87 115.476 185.872 124.23Z" fill="url(#paint4_radial_353_210)"/>
<path d="M133.867 53.6509C142.176 79.9513 127.981 106.274 119.835 113.58C118.486 108.955 114.174 110.284 113.557 106.16C110.656 86.7784 118.503 67.3053 123.83 59.9292C127.441 54.93 131.238 53.6509 133.867 53.6509Z" fill="url(#paint5_linear_353_210)"/>
<path d="M183.507 119.62C196.294 112.087 187.718 68.3271 179.713 61.6415L177.995 67.2361L168.349 102.159C170.186 111.617 173.65 125.427 183.507 119.62Z" fill="url(#paint6_linear_353_210)"/>
<path d="M142.067 43.2053L160.54 45.7222L161.655 59.3585L138.255 55.4877L140.796 50.4048L142.067 43.2053Z" fill="#A9977F"/>
<path d="M126.684 62.783C129.805 53.9443 135.692 50.6597 139.376 50.2264C163.436 54.1259 167.173 50.1254 173.026 54.6748C178.878 59.2242 180.343 60.6798 180.343 71.3389C180.343 79.9585 178.392 108.718 180.343 111.968C182.293 115.218 178.392 113.918 180.343 117.167C181.903 119.767 179.692 121.283 178.392 121.717C140.678 128.216 117.919 121.225 115.317 119.276C112.716 117.326 119.277 117.662 117.326 115.062C115.375 112.462 122.444 113.197 120.519 109.527C117.893 104.52 122.782 73.8315 126.684 62.783Z" fill="url(#paint7_linear_353_210)"/>
<path d="M191.626 46.3822C207.274 44.832 171.974 9.78249 151.696 13.6662C133.789 13.673 125.599 42.2592 149.667 48.6796C161.188 51.7531 166.115 42.1303 191.626 46.3822Z" fill="url(#paint8_linear_353_210)"/>
<path d="M191.626 46.3822C207.274 44.832 171.974 9.78249 151.696 13.6662C133.789 13.673 125.599 42.2592 149.667 48.6796C161.188 51.7531 166.115 42.1303 191.626 46.3822Z" fill="url(#paint9_linear_353_210)"/>
<path d="M289.668 54.671L305.12 52.1344L306.681 61.6435L288.778 62.783L289.668 54.671Z" fill="#9D8C75"/>
<path d="M303.108 13.2895C308.738 13.5452 302.946 25.1643 303.328 26.3552C300.781 28.0487 296.581 30.0974 300.161 24.7444C303.742 19.3914 301.726 17.2363 300.27 16.8279C299.36 15.3685 292.353 12.8009 303.108 13.2895Z" fill="#C8C1B4"/>
<path d="M284.008 15.138C289.152 12.4336 290.145 25.8287 291.115 26.6932C289.745 29.533 287.092 33.5509 287.446 26.9043C287.8 20.2577 284.866 19.3834 283.355 19.7771C281.773 18.9478 274.182 20.3047 284.008 15.138Z" fill="#C8C1B4"/>
<path d="M266.381 136.514C268.798 128.457 278.131 121.071 282.495 118.385L331.845 122.414C333.524 127.114 335.874 137.118 331.845 139.535C326.809 142.557 309.142 148.164 290.472 146.09C283.22 145.284 266.381 137.185 266.381 136.514Z" fill="url(#paint10_radial_353_210)"/>
<path d="M275.655 70.8437C275.655 69.5102 283.299 63.2502 287.121 60.2868C296.294 61.1758 304.652 59.6987 306.472 58.217C313.388 58.4023 322.82 59.0351 325.877 63.9246C329.699 70.0365 329.873 75.3397 329.873 88.467C329.873 99.2153 334.439 115.294 331.894 123.628C307.433 134.741 286.757 126.777 279.477 121.406C280.751 119.924 283.299 116.627 283.299 115.294C283.299 113.627 281.661 108.071 277.293 100.292C272.925 92.5132 275.655 72.5106 275.655 70.8437Z" fill="url(#paint11_linear_353_210)"/>
<path d="M275.645 107.257C272.638 98.6704 275.645 73.1241 275.645 71.4076C279.451 76.4087 278.789 76.2214 282.358 89.6085C285.214 100.318 283.927 113.582 282.358 118.274C282.358 116.558 279.001 116.841 275.645 107.257Z" fill="url(#paint12_linear_353_210)"/>
<path d="M253.692 47.751C239.224 44.6653 287.286 14.5525 303.086 23.7667C319.839 25.6953 314.89 56.1236 300.422 56.1236C290.522 59.7664 283.498 47.751 253.692 47.751Z" fill="url(#paint13_linear_353_210)"/>
<ellipse rx="2.83868" ry="3.89261" transform="matrix(0.976569 0.215206 -0.17745 0.98413 169.674 26.0444)" fill="#303030"/>
<ellipse rx="3.30118" ry="3.99447" transform="matrix(0.992136 0.125164 -0.133723 0.991019 286.898 33.6082)" fill="#303030"/>
<ellipse rx="0.825294" ry="1.01964" transform="matrix(0.992136 0.125164 -0.133723 0.991019 286.263 32.1404)" fill="white"/>
<ellipse rx="0.531897" ry="0.657153" transform="matrix(0.992136 0.125164 -0.133723 0.991019 284.912 33.5783)" fill="white"/>
<ellipse rx="0.868133" ry="1.07257" transform="matrix(0.992136 0.125164 -0.133723 0.991019 170.822 24.045)" fill="white"/>
<ellipse rx="0.559507" ry="0.691264" transform="matrix(0.992136 0.125164 -0.133723 0.991019 169.4 25.5578)" fill="white"/>
<defs>
<filter id="filter0_df_353_210" x="0.125189" y="187.395" width="443.75" height="72.7589" filterUnits="userSpaceOnUse" color-interpolation-filters="sRGB">
<feFlood flood-opacity="0" result="BackgroundImageFix"/>
<feColorMatrix in="SourceAlpha" type="matrix" values="0 0 0 0 0 0 0 0 0 0 0 0 0 0 0 0 0 0 127 0" result="hardAlpha"/>
<feOffset dy="4.0343"/>
<feGaussianBlur stdDeviation="7.06003"/>
<feComposite in2="hardAlpha" operator="out"/>
<feColorMatrix type="matrix" values="0 0 0 0 0 0 0 0 0 0 0 0 0 0 0 0 0 0 0.23 0"/>
<feBlend mode="normal" in2="BackgroundImageFix" result="effect1_dropShadow_353_210"/>
<feBlend mode="normal" in="SourceGraphic" in2="effect1_dropShadow_353_210" result="shape"/>
<feGaussianBlur stdDeviation="2.28302" result="effect2_foregroundBlur_353_210"/>
</filter>
<filter id="filter1_f_353_210" x="259.264" y="194.057" width="62.6372" height="52.0895" filterUnits="userSpaceOnUse" color-interpolation-filters="sRGB">
<feFlood flood-opacity="0" result="BackgroundImageFix"/>
<feBlend mode="normal" in="SourceGraphic" in2="BackgroundImageFix" result="shape"/>
<feGaussianBlur stdDeviation="3.99528" result="effect1_foregroundBlur_353_210"/>
</filter>
<filter id="filter2_f_353_210" x="132.665" y="197.466" width="56.7486" height="47.2641" filterUnits="userSpaceOnUse" color-interpolation-filters="sRGB">
<feFlood flood-opacity="0" result="BackgroundImageFix"/>
<feBlend mode="normal" in="SourceGraphic" in2="BackgroundImageFix" result="shape"/>
<feGaussianBlur stdDeviation="3.99528" result="effect1_foregroundBlur_353_210"/>
</filter>
<filter id="filter3_f_353_210" x="147.179" y="197.925" width="40.8022" height="49.7678" filterUnits="userSpaceOnUse" color-interpolation-filters="sRGB">
<feFlood flood-opacity="0" result="BackgroundImageFix"/>
<feBlend mode="normal" in="SourceGraphic" in2="BackgroundImageFix" result="shape"/>
<feGaussianBlur stdDeviation="3.99528" result="effect1_foregroundBlur_353_210"/>
</filter>
<linearGradient id="paint0_linear_353_210" x1="90.3471" y1="168.702" x2="90.3471" y2="222.661" gradientUnits="userSpaceOnUse">
<stop stop-color="#7C6E5B"/>
<stop offset="1" stop-color="#271700"/>
</linearGradient>
<linearGradient id="paint1_linear_353_210" x1="352.173" y1="169.207" x2="352.173" y2="223.165" gradientUnits="userSpaceOnUse">
<stop stop-color="#7C6E5B"/>
<stop offset="1" stop-color="#271700"/>
</linearGradient>
<linearGradient id="paint2_linear_353_210" x1="40.2965" y1="166.405" x2="415.154" y2="159.393" gradientUnits="userSpaceOnUse">
<stop stop-color="#C69242"/>
<stop offset="0.307292" stop-color="#824F00"/>
<stop offset="0.53125" stop-color="#B9883B"/>
<stop offset="0.880208" stop-color="#5C3800"/>
</linearGradient>
<linearGradient id="paint3_linear_353_210" x1="39.9293" y1="149.538" x2="414.915" y2="146.113" gradientUnits="userSpaceOnUse">
<stop stop-color="#EBB664"/>
<stop offset="0.307292" stop-color="#8E5B0B"/>
<stop offset="0.520833" stop-color="#DEAA58"/>
<stop offset="0.703125" stop-color="#835000"/>
<stop offset="1" stop-color="#D5A14F"/>
</linearGradient>
<radialGradient id="paint4_radial_353_210" cx="0" cy="0" r="1" gradientUnits="userSpaceOnUse" gradientTransform="translate(152.734 112.35) rotate(101.104) scale(68.1775 389.382)">
<stop offset="0.300187" stop-color="#0E1121"/>
<stop offset="0.687098" stop-color="#222A55"/>
</radialGradient>
<linearGradient id="paint5_linear_353_210" x1="127.255" y1="53.6509" x2="127.255" y2="108.443" gradientUnits="userSpaceOnUse">
<stop stop-color="#3F0606"/>
<stop offset="1" stop-color="#920F17"/>
</linearGradient>
<linearGradient id="paint6_linear_353_210" x1="178.37" y1="62.1432" x2="178.37" y2="122.066" gradientUnits="userSpaceOnUse">
<stop stop-color="#461030"/>
<stop offset="1" stop-color="#7C0C1A"/>
</linearGradient>
<linearGradient id="paint7_linear_353_210" x1="149.748" y1="50.2264" x2="149.748" y2="124.425" gradientUnits="userSpaceOnUse">
<stop stop-color="#BC344C"/>
<stop offset="1" stop-color="#7A0A0A"/>
</linearGradient>
<linearGradient id="paint8_linear_353_210" x1="172.609" y1="15.3797" x2="173.477" y2="55.4827" gradientUnits="userSpaceOnUse">
<stop stop-color="#D9D9D9"/>
<stop offset="1" stop-color="#B6B0B0"/>
</linearGradient>
<linearGradient id="paint9_linear_353_210" x1="173.2" y1="13.3429" x2="144.541" y2="65.6938" gradientUnits="userSpaceOnUse">
<stop stop-color="#D5D1C6"/>
<stop offset="1" stop-color="#866E52"/>
</linearGradient>
<radialGradient id="paint10_radial_353_210" cx="0" cy="0" r="1" gradientUnits="userSpaceOnUse" gradientTransform="translate(300.764 122.142) rotate(90) scale(31.3915 148.636)">
<stop stop-color="#161515"/>
<stop offset="1" stop-color="#361414"/>
</radialGradient>
<linearGradient id="paint11_linear_353_210" x1="303.722" y1="56.953" x2="303.722" y2="129.226" gradientUnits="userSpaceOnUse">
<stop stop-color="#314464"/>
<stop offset="0.546875" stop-color="#4869A0"/>
<stop offset="0.796875" stop-color="#3A5888"/>
</linearGradient>
<linearGradient id="paint12_linear_353_210" x1="280.233" y1="71.4076" x2="280.233" y2="117.181" gradientUnits="userSpaceOnUse">
<stop stop-color="#32486B"/>
<stop offset="1" stop-color="#10223E"/>
</linearGradient>
<linearGradient id="paint13_linear_353_210" x1="276.994" y1="20.0772" x2="289.038" y2="62.255" gradientUnits="userSpaceOnUse">
<stop stop-color="#D5D1C6"/>
<stop offset="1" stop-color="#866E52"/>
</linearGradient>
</defs>
</svg>
