<svg width="860" height="700" viewBox="0 0 860 700" fill="none" xmlns="http://www.w3.org/2000/svg">
<rect x="138" y="54" width="585" height="613" fill="url(#paint0_diamond_1_531)"/>
<g filter="url(#filter0_d_1_531)">
<rect x="131" y="647" width="601" height="24" fill="#041337"/>
</g>
<rect x="130" y="54" width="601" height="24" fill="#041337"/>
<path d="M414.499 15.391C423.078 6.87311 436.922 6.87311 445.501 15.391L764.511 332.138C778.446 345.975 768.647 369.75 749.01 369.75H110.99C91.3526 369.75 81.5541 345.975 95.4893 332.138L414.499 15.391Z" fill="url(#paint1_radial_1_531)"/>
<path d="M458 24.5C474.016 24.5 458 35.2696 458 24.5C441.984 24.5 400 35.2696 400 24.5C400 13.7304 412.984 5 429 5C445.016 5 458 13.7304 458 24.5Z" fill="#2D0F03"/>
<path d="M473 31.3506C473 43.0992 454.42 43 431.5 43C408.58 43 390 43.0992 390 31.3506C390 19.602 408.58 4 431.5 4C454.42 4 473 19.602 473 31.3506Z" fill="#2D0F03"/>
<defs>
<filter id="filter0_d_1_531" x="118" y="647" width="627" height="53" filterUnits="userSpaceOnUse" color-interpolation-filters="sRGB">
<feFlood flood-opacity="0" result="BackgroundImageFix"/>
<feColorMatrix in="SourceAlpha" type="matrix" values="0 0 0 0 0 0 0 0 0 0 0 0 0 0 0 0 0 0 127 0" result="hardAlpha"/>
<feOffset dy="16"/>
<feGaussianBlur stdDeviation="6.5"/>
<feComposite in2="hardAlpha" operator="out"/>
<feColorMatrix type="matrix" values="0 0 0 0 0 0 0 0 0 0 0 0 0 0 0 0 0 0 0.25 0"/>
<feBlend mode="normal" in2="BackgroundImageFix" result="effect1_dropShadow_1_531"/>
<feBlend mode="normal" in="SourceGraphic" in2="effect1_dropShadow_1_531" result="shape"/>
</filter>
<radialGradient id="paint0_diamond_1_531" cx="0" cy="0" r="1" gradientUnits="userSpaceOnUse" gradientTransform="translate(431 97) rotate(-4.17548) scale(590.568 778.437)">
<stop offset="0.508883" stop-color="#153D63"/>
<stop offset="1" stop-color="#3A6895"/>
</radialGradient>
<radialGradient id="paint1_radial_1_531" cx="0" cy="0" r="1" gradientUnits="userSpaceOnUse" gradientTransform="translate(430 15) rotate(90) scale(364 234.858)">
<stop offset="0.192708" stop-color="#FFF6A8" stop-opacity="0.62"/>
<stop offset="1" stop-color="#A9FAFF" stop-opacity="0"/>
</radialGradient>
</defs>
</svg>
