<svg width="262" height="273" viewBox="0 0 262 273" fill="none" xmlns="http://www.w3.org/2000/svg">
<path d="M112.825 256.603C137.84 252.488 133.671 238.885 128.459 232.598H181.188C168.19 239.342 186.604 251.411 197.436 256.603C158.809 258.317 87.8091 260.718 112.825 256.603Z" fill="#E9E4DA"/>
<rect x="103.941" y="255.208" width="103.272" height="17.7213" fill="url(#paint0_linear_530_225)"/>
<rect x="117.385" y="226.488" width="73.9404" height="7.94401" fill="#655C57"/>
<path d="M107.132 225.086C100.009 224.135 97.4094 200.632 97 189C102.731 192.569 116.465 200.738 125.553 204.862C134.64 208.986 138.754 203.144 139.675 199.707C154.412 217.473 194.938 210.546 213.359 204.862C214.69 207.374 214.833 214.935 204.763 225.086C192.175 237.776 116.035 226.276 107.132 225.086Z" fill="url(#paint1_linear_530_225)"/>
<path d="M95.6915 197.767C80.0479 194.834 79.5998 176.583 81.3312 167.824C81.3312 167.824 65.4842 164.425 60 156.825C57.4263 153.258 55.5 146.5 55.5 146.5L90.4973 139.715L99.6635 181.268L129.606 193.795L142.133 132.687L122.579 110.688L134.189 106.716L161.688 117.105L200.491 110.688L209.963 117.105L164.438 132.687L159.549 193.795C169.428 193.999 191.447 194.284 200.491 193.795C209.535 193.306 211.648 168.619 214.5 156.5C218.411 160.655 220.555 191.758 218.213 206.628C249.5 202.228 260.377 212.127 261.905 217.627C248.461 233.515 224.379 222.62 214.5 216C211 211 214.639 206.426 212.5 205C211.176 206.324 206.602 213.838 187.048 214.572C162.605 215.488 154.661 213.655 147.022 206.628C140.911 201.006 138.161 204.285 137.55 206.628C128.079 211.211 115.246 201.433 95.6915 197.767Z" fill="url(#paint2_linear_530_225)"/>
<path d="M121.357 109.772C148.244 98.2835 147.837 88.8933 144.272 85.6342C172.137 101.767 188.066 81.153 192.547 68.8296C191.733 73.8201 190.592 86.5508 192.547 97.5502C194.503 108.55 230.841 125.151 248.766 132.076C259.033 138.92 259.155 161.612 257.933 172.102C262.577 188.234 262.312 208.766 261.599 217.016C253.777 205.283 227.786 207.239 215.768 209.683V161.408C215.768 213.961 174.419 209.581 153.744 200.822C143.967 167.58 148.448 141.14 151.911 132.076C155.822 127.676 182.668 121.077 195.603 118.327C180.692 116.127 159.04 123.114 150.077 126.882C146.9 122.238 136.328 117.207 131.44 115.271C142.194 119.671 146.309 130.141 147.022 134.826C143.844 137.515 135.31 176.807 131.44 198.5C79.6201 193.856 77.461 167.111 82.8588 151.936C72.1039 156.58 59.4342 150.001 54.4437 146.131C70.5762 127.31 80.109 120.364 82.8588 119.243C93.1249 99.9334 112.802 104.883 121.357 109.772Z" fill="url(#paint3_radial_530_225)"/>
<path d="M49.1101 90.9063C101.745 31.8679 155.12 17.9698 185.117 25.469C214.798 30.7069 210.59 68.3235 195.518 86.4521C189.872 93.243 180.558 94.6049 171.777 93.6672C154.585 91.8315 128.127 87.9937 116.344 86.3572C105.966 84.9158 74.524 92.6631 53.1288 97.6518C49.1012 98.5909 46.358 93.9932 49.1101 90.9063Z" fill="url(#paint4_linear_530_225)"/>
<mask id="mask0_530_225" style="mask-type:alpha" maskUnits="userSpaceOnUse" x="47" y="23" width="161" height="75">
<path d="M49.1101 90.9063C101.745 31.8679 155.12 17.9698 185.117 25.469C214.798 30.7069 210.59 68.3235 195.518 86.4521C189.872 93.243 180.558 94.6049 171.777 93.6672C154.585 91.8315 128.127 87.9937 116.344 86.3572C105.966 84.9158 74.524 92.6631 53.1288 97.6518C49.1012 98.5909 46.358 93.9932 49.1101 90.9063Z" fill="#E9E4DA"/>
</mask>
<g mask="url(#mask0_530_225)">
<path d="M161.004 42.0508L157.598 37.5502C164.38 39.4957 166.409 35.7469 172.067 38.5441C176.592 40.7818 182.365 42.9905 185 43.3551C182.955 43.5759 177.621 43.5432 172.645 41.6462C167.669 39.7491 162.811 41.1255 161.004 42.0508Z" fill="#707070"/>
<path d="M123 80.5001C93.8 78.9001 63.5 92.1668 52 99.0001H125L204 94L207 67C185.5 89.5 159.5 82.5001 123 80.5001Z" fill="url(#paint5_linear_530_225)"/>
<path d="M174.991 49.4155C176.587 48.795 175.539 47.9704 174.815 47.6357C176.175 47.9599 178.733 48.6902 178.085 49.0178C177.438 49.3454 175.753 49.4194 174.991 49.4155Z" fill="#AAAAAA"/>
</g>
<path d="M146.963 27.845C146.824 29.1782 146.714 30.6472 146.888 31.9823L155.493 28.7236C155.266 27.8767 155.248 26.8494 155.302 25.9833C155.414 24.1906 155.009 23.3606 154.931 20.7452C154.853 18.1298 154.424 16.5312 153.851 14.3982C153.16 11.8247 151.865 9.76872 150.445 7.80855C148.897 5.67245 146.12 5.21112 143.804 6.76343C142.461 7.66327 141.192 8.68719 139.916 9.67734C138.505 10.772 135.883 13.3 134.928 14.8224C134.38 15.6964 131.078 20.5134 132.399 22.3535C133.96 23.0315 135.917 22.0786 137.34 21.4657C139.319 20.6131 139.892 20.0123 141.688 18.7882C142.272 18.3901 144.172 17.3054 144.864 17.9354C146.067 19.0321 146.434 20.2209 146.683 21.8012C146.996 23.7877 147.172 25.8382 146.963 27.845Z" fill="#E9E4DA"/>
<path d="M177.288 24.7237C177.207 24.8088 177.126 24.8949 177.045 24.9819C175.721 26.3946 176.483 28.4949 178.336 29.0558L183.513 30.623C183.849 29.8132 184.461 28.988 185.032 28.3346C186.214 26.9821 187.233 25.644 187.933 23.9575C188.774 21.9343 190.102 20.3089 190.949 18.2693C191.971 15.8084 192.198 13.3887 192.268 10.9693C192.345 8.3327 190.425 6.27318 187.643 6.09067C186.03 5.98487 184.4 6.02225 182.785 6.02851C180.999 6.03543 177.379 6.43951 175.694 7.0637C174.727 7.42203 169.172 9.22537 169.096 11.489C169.92 12.9788 172.052 13.4169 173.553 13.7992C175.642 14.3309 176.462 14.2039 178.632 14.3291C179.338 14.3699 181.505 14.6697 181.669 15.5904C181.953 17.1933 181.519 18.3594 180.753 19.7636C179.789 21.5287 178.678 23.2608 177.288 24.7237Z" fill="#E9E4DA"/>
<path fill-rule="evenodd" clip-rule="evenodd" d="M173.426 48.493C173.157 49.0765 172.53 49.4416 171.861 49.3491C171.042 49.2358 170.47 48.4802 170.584 47.6614C170.676 46.9921 171.198 46.4877 171.832 46.3876C171.659 46.3214 171.475 46.2736 171.283 46.2471C169.918 46.0583 168.659 47.0116 168.47 48.3764C168.281 49.7411 169.234 51.0005 170.599 51.1892C171.964 51.378 173.223 50.4247 173.412 49.0599C173.439 48.868 173.443 48.6781 173.426 48.493Z" fill="#5C5C5C"/>
<path d="M164.062 48.2028C163.888 46.9756 165.853 45.8026 166.774 45.5802C166.553 46.0823 166.746 46.9657 166.207 47.3347C166.044 47.4467 164.098 48.4569 164.062 48.2028Z" fill="#D9D9D9"/>
<path d="M166.774 45.5802C165.853 45.8026 163.888 46.9756 164.062 48.2028C164.098 48.4569 166.044 47.4467 166.207 47.3347C166.746 46.9657 166.553 46.0823 166.774 45.5802ZM166.774 45.5802C166.952 45.1769 170.115 45.9013 170.349 45.9337C171.677 46.1174 173.654 46.4423 174.959 45.9368C175.614 45.6831 176.262 46.031 176.735 46.4504C177.903 47.4864 178.976 48.3816 180.518 48.863" stroke="#5C5C5C" stroke-width="1.83323" stroke-linecap="round"/>
<path d="M166.85 49.1599C167.821 50.6373 170.762 52.9245 174.758 50.2536C173.372 50.5656 169.849 50.7835 166.85 49.1599Z" fill="#4F4F4F"/>
<path fill-rule="evenodd" clip-rule="evenodd" d="M37.8789 189.412L46.4853 186L50.4404 189.412L53.7105 198.405C55.6796 198.973 57.5745 199.716 59.3775 200.615L64.3971 193.25L75.0587 201.78L77.7179 205.415L73.9253 214.623C74.9494 216.494 75.8013 218.472 76.4594 220.537L81.0294 220.118L86.148 224.309V236.87L76.5275 240.806C75.9433 242.683 75.1995 244.489 74.3118 246.209L78.812 255.854L69.9291 264.736L60.0568 260.595C58.4341 261.451 56.7331 262.179 54.9672 262.765H55.0152L51.2933 273H38.7318L34.9706 267.029L34.571 263.028C32.9104 262.525 31.304 261.898 29.7627 261.156L19.5965 265.495L10.6578 256.67L8.10294 251.25L14.8224 247.01C13.8918 245.321 13.102 243.543 12.4688 241.692L2.55882 237.638L0 232.912L2.55882 225.076L11.9062 221.677C12.4862 219.605 13.2594 217.614 14.205 215.724L10.2239 206.229L19.1068 197.347L27.823 201.415C29.7961 200.302 31.8926 199.382 34.0869 198.681L37.8789 189.412ZM44.3535 252.53C56.3657 252.53 66.1035 242.792 66.1035 230.78C66.1035 218.767 56.3657 209.03 44.3535 209.03C32.3413 209.03 22.6035 218.767 22.6035 230.78C22.6035 242.792 32.3413 252.53 44.3535 252.53Z" fill="url(#paint6_linear_530_225)"/>
<path fill-rule="evenodd" clip-rule="evenodd" d="M34.2389 186H46.4158L49.5859 194.718C51.6514 195.314 53.6329 196.108 55.5082 197.079L64.1933 192.958L72.8584 201.514L69.1818 210.44C70.2195 212.335 71.0747 214.345 71.7238 216.445L81.0303 219.829V232.006L71.7043 235.821C71.138 237.64 70.4169 239.391 69.5564 241.058L73.9189 250.408L65.308 259.018L55.7378 255.004C54.1649 255.834 52.516 256.54 50.8043 257.107H50.8506L47.2426 267.029H35.0657L31.1224 257.39C29.4806 256.898 27.8931 256.28 26.3711 255.548L16.5162 259.755L7.8511 251.199L12.0309 242.092C11.0666 240.378 10.2525 238.568 9.60652 236.68L0 232.75V220.573L9.06121 217.278C9.62348 215.269 10.373 213.339 11.2896 211.507L7.43041 202.302L16.0414 193.693L24.4908 197.636C26.4035 196.557 28.4358 195.665 30.5629 194.986L34.2389 186ZM40.5153 247.185C52.1597 247.185 61.5994 237.746 61.5994 226.101C61.5994 214.457 52.1597 205.017 40.5153 205.017C28.8708 205.017 19.4311 214.457 19.4311 226.101C19.4311 237.746 28.8708 247.185 40.5153 247.185Z" fill="url(#paint7_linear_530_225)"/>
<defs>
<linearGradient id="paint0_linear_530_225" x1="155.577" y1="255.208" x2="155.577" y2="272.929" gradientUnits="userSpaceOnUse">
<stop stop-color="#8B7E76"/>
<stop offset="1" stop-color="#9C8C83"/>
</linearGradient>
<linearGradient id="paint1_linear_530_225" x1="155.5" y1="189" x2="146" y2="231" gradientUnits="userSpaceOnUse">
<stop offset="0.486578" stop-color="#E9E4DA"/>
<stop offset="1" stop-color="#DCD4C3"/>
</linearGradient>
<linearGradient id="paint2_linear_530_225" x1="199.5" y1="90.4998" x2="134" y2="234.5" gradientUnits="userSpaceOnUse">
<stop stop-color="#867D7D"/>
<stop offset="0.695424" stop-color="#7D6F6F"/>
<stop offset="1" stop-color="#605454"/>
</linearGradient>
<radialGradient id="paint3_radial_530_225" cx="0" cy="0" r="1" gradientUnits="userSpaceOnUse" gradientTransform="translate(160 146) rotate(105.55) scale(59.6846 109.079)">
<stop offset="0.550447" stop-color="#E9E4DA"/>
<stop offset="1" stop-color="#D7CAB0"/>
</radialGradient>
<linearGradient id="paint4_linear_530_225" x1="134" y1="22" x2="131" y2="109" gradientUnits="userSpaceOnUse">
<stop offset="0.309741" stop-color="#E9E4DA"/>
<stop offset="0.827292" stop-color="#C4B496"/>
</linearGradient>
<linearGradient id="paint5_linear_530_225" x1="175.5" y1="71" x2="118.5" y2="99" gradientUnits="userSpaceOnUse">
<stop stop-color="#938C8C"/>
<stop offset="1" stop-color="#7A7272"/>
</linearGradient>
<linearGradient id="paint6_linear_530_225" x1="43.074" y1="186" x2="43.5" y2="279.397" gradientUnits="userSpaceOnUse">
<stop offset="0.09375" stop-color="#9E8B7A"/>
<stop offset="1" stop-color="#533A2C"/>
</linearGradient>
<linearGradient id="paint7_linear_530_225" x1="40.5152" y1="186" x2="40.5152" y2="267.029" gradientUnits="userSpaceOnUse">
<stop stop-color="#FFF6E6"/>
<stop offset="1" stop-color="#E0B893"/>
</linearGradient>
</defs>
</svg>
