<svg xmlns="http://www.w3.org/2000/svg" fill="none" viewBox="0 5.85 320 267.08">
<path d="M122.825 256.603C147.84 252.488 143.671 238.885 138.459 232.598H191.188C178.19 239.342 196.604 251.411 207.436 256.603C168.809 258.317 97.8091 260.718 122.825 256.603Z" fill="#E9E4DA"/>
<rect x="113.941" y="255.208" width="103.272" height="17.7213" fill="url(#paint0_linear_530_226)"/>
<rect x="127.385" y="226.488" width="73.9404" height="7.94401" fill="#655C57"/>
<path d="M117.132 225.086C110.009 224.135 107.409 200.632 107 189C112.731 192.569 126.465 200.738 135.553 204.862C144.64 208.986 148.754 203.144 149.675 199.707C164.412 217.473 204.938 210.546 223.359 204.862C224.69 207.374 224.833 214.935 214.763 225.086C202.175 237.776 126.035 226.276 117.132 225.086Z" fill="url(#paint1_linear_530_226)"/>
<path d="M105.691 197.767C90.0479 194.834 89.5997 176.583 91.3311 167.824C91.3311 167.824 75.4841 164.425 69.9999 156.825C67.4263 153.258 65.4999 146.5 65.4999 146.5L100.497 139.715L109.663 181.268L139.606 193.795L152.133 132.687L132.579 110.688L144.189 106.716L171.688 117.105L210.491 110.688L219.963 117.105L174.438 132.687L169.549 193.795C179.428 193.999 201.447 194.284 210.491 193.795C219.535 193.306 221.648 168.619 224.5 156.5C228.411 160.655 230.555 191.758 228.213 206.628C259.5 202.228 270.377 212.127 271.905 217.627C258.461 233.515 234.379 222.62 224.5 216C221 211 224.639 206.426 222.5 205C221.176 206.324 216.602 213.838 197.048 214.572C172.604 215.488 164.66 213.655 157.022 206.628C150.911 201.006 148.161 204.285 147.55 206.628C138.079 211.211 125.246 201.433 105.691 197.767Z" fill="url(#paint2_linear_530_226)"/>
<path d="M131.357 109.772C158.244 98.2835 157.837 88.8933 154.272 85.6342C182.137 101.767 198.066 81.153 202.547 68.8296C201.733 73.8201 200.592 86.5508 202.547 97.5502C204.503 108.55 240.841 125.151 258.766 132.076C269.033 138.92 269.155 161.612 267.933 172.102C272.577 188.234 272.312 208.766 271.599 217.016C263.777 205.283 237.786 207.239 225.768 209.683V161.408C225.768 213.961 184.419 209.581 163.744 200.822C153.967 167.58 158.448 141.14 161.911 132.076C165.822 127.676 192.668 121.077 205.603 118.327C190.692 116.127 169.04 123.114 160.077 126.882C156.9 122.238 146.328 117.207 141.44 115.271C152.194 119.671 156.309 130.141 157.022 134.826C153.844 137.515 145.31 176.807 141.44 198.5C89.6201 193.856 87.461 167.111 92.8588 151.936C82.1039 156.58 69.4342 150.001 64.4437 146.131C80.5762 127.31 90.109 120.364 92.8588 119.243C103.125 99.9334 122.802 104.883 131.357 109.772Z" fill="url(#paint3_radial_530_226)"/>
<path d="M59.1101 90.9063C111.745 31.8679 165.12 17.9698 195.117 25.469C224.798 30.7069 220.59 68.3235 205.518 86.4521C199.872 93.243 190.558 94.6049 181.777 93.6672C164.585 91.8315 138.127 87.9937 126.344 86.3572C115.966 84.9158 84.524 92.6631 63.1288 97.6518C59.1012 98.5909 56.358 93.9932 59.1101 90.9063Z" fill="url(#paint4_linear_530_226)"/>
<path d="M59.1101 90.9063C111.745 31.8679 165.12 17.9698 195.117 25.469C224.798 30.7069 220.59 68.3235 205.518 86.4521C199.872 93.243 190.558 94.6049 181.777 93.6672C164.585 91.8315 138.127 87.9937 126.344 86.3572C115.966 84.9158 84.524 92.6631 63.1288 97.6518C59.1012 98.5909 56.358 93.9932 59.1101 90.9063Z" fill="url(#paint5_linear_530_226)"/>
<mask id="mask0_530_226" style="mask-type:alpha" maskUnits="userSpaceOnUse" x="57" y="23" width="161" height="75">
<path d="M59.1101 90.9063C111.745 31.8679 165.12 17.9698 195.117 25.469C224.798 30.7069 220.59 68.3235 205.518 86.4521C199.872 93.243 190.558 94.6049 181.777 93.6672C164.585 91.8315 138.127 87.9937 126.344 86.3572C115.966 84.9158 84.524 92.6631 63.1288 97.6518C59.1012 98.5909 56.358 93.9932 59.1101 90.9063Z" fill="#E9E4DA"/>
</mask>
<g mask="url(#mask0_530_226)">
<path d="M133 80.5001C103.8 78.9001 73.5 92.1668 62 99.0001H135L214 94L217 67C195.5 89.5 169.5 82.5001 133 80.5001Z" fill="url(#paint6_linear_530_226)"/>
</g>
<path d="M156.963 27.845C156.824 29.1782 156.714 30.6472 156.888 31.9823L165.493 28.7236C165.266 27.8767 165.248 26.8494 165.302 25.9833C165.414 24.1906 165.009 23.3606 164.931 20.7452C164.853 18.1298 164.424 16.5312 163.851 14.3982C163.16 11.8247 161.865 9.76872 160.445 7.80855C158.897 5.67245 156.12 5.21112 153.804 6.76343C152.461 7.66327 151.192 8.68719 149.916 9.67734C148.505 10.772 145.883 13.3 144.928 14.8224C144.38 15.6964 141.078 20.5134 142.399 22.3535C143.96 23.0315 145.917 22.0786 147.34 21.4657C149.319 20.6131 149.892 20.0123 151.688 18.7882C152.272 18.3901 154.172 17.3054 154.864 17.9354C156.067 19.0321 156.434 20.2209 156.683 21.8012C156.996 23.7877 157.172 25.8382 156.963 27.845Z" fill="#E9E4DA"/>
<path d="M187.288 24.7237C187.207 24.8088 187.126 24.8949 187.045 24.9819C185.721 26.3946 186.483 28.4949 188.336 29.0558L193.513 30.623C193.849 29.8132 194.461 28.988 195.032 28.3346C196.214 26.9821 197.233 25.644 197.933 23.9575C198.774 21.9343 200.102 20.3089 200.949 18.2693C201.971 15.8084 202.198 13.3887 202.268 10.9693C202.345 8.3327 200.425 6.27318 197.643 6.09067C196.03 5.98487 194.4 6.02225 192.785 6.02851C190.999 6.03543 187.379 6.43951 185.694 7.0637C184.727 7.42203 179.172 9.22537 179.096 11.489C179.92 12.9788 182.052 13.4169 183.553 13.7992C185.642 14.3309 186.462 14.2039 188.632 14.3291C189.338 14.3699 191.505 14.6697 191.669 15.5904C191.953 17.1933 191.519 18.3594 190.753 19.7636C189.789 21.5287 188.678 23.2608 187.288 24.7237Z" fill="#E9E4DA"/>
<path d="M171.004 42.0508L167.598 37.5502C174.38 39.4957 176.409 35.7469 182.067 38.5441C186.592 40.7818 192.365 42.9905 195 43.3551C192.955 43.5759 187.621 43.5432 182.645 41.6462C177.669 39.7491 172.811 41.1255 171.004 42.0508Z" fill="#707070"/>
<path d="M184.991 49.4155C186.587 48.795 185.539 47.9704 184.815 47.6357C186.175 47.9599 188.733 48.6902 188.085 49.0178C187.438 49.3454 185.753 49.4194 184.991 49.4155Z" fill="#AAAAAA"/>
<path fill-rule="evenodd" clip-rule="evenodd" d="M183.426 48.493C183.157 49.0765 182.53 49.4416 181.861 49.3491C181.042 49.2358 180.47 48.4802 180.584 47.6614C180.676 46.9921 181.198 46.4877 181.832 46.3876C181.659 46.3214 181.475 46.2736 181.283 46.2471C179.918 46.0583 178.659 47.0116 178.47 48.3764C178.281 49.7411 179.234 51.0005 180.599 51.1892C181.964 51.378 183.223 50.4247 183.412 49.0599C183.439 48.868 183.443 48.6781 183.426 48.493Z" fill="#5C5C5C"/>
<path d="M174.062 48.2028C173.888 46.9756 175.853 45.8026 176.774 45.5802C176.553 46.0823 176.746 46.9657 176.207 47.3347C176.044 47.4467 174.098 48.4569 174.062 48.2028Z" fill="#D9D9D9"/>
<path d="M176.774 45.5802C175.853 45.8026 173.888 46.9756 174.062 48.2028C174.098 48.4569 176.044 47.4467 176.207 47.3347C176.746 46.9657 176.553 46.0823 176.774 45.5802ZM176.774 45.5802C176.952 45.1769 180.115 45.9013 180.349 45.9337C181.677 46.1174 183.654 46.4423 184.959 45.9368C185.614 45.6831 186.262 46.031 186.735 46.4504C187.903 47.4864 188.976 48.3816 190.518 48.863" stroke="#5C5C5C" stroke-width="1.83323" stroke-linecap="round"/>
<path d="M176.85 49.1599C177.821 50.6373 180.762 52.9245 184.758 50.2536C183.372 50.5656 179.849 50.7835 176.85 49.1599Z" fill="#4F4F4F"/>
<path d="M33.1693 200.647L30.6502 196.628L31.6362 194.33L33.344 192.887L35.0517 191.443L37.8207 194.373L38.6462 197.774L33.1693 200.647Z" fill="url(#paint7_linear_530_226)"/>
<path d="M33.1693 200.647L30.6502 196.628L31.6362 194.33L33.344 192.887L35.0517 191.443L37.8207 194.373L38.6462 197.774L33.1693 200.647Z" fill="url(#paint8_linear_530_226)"/>
<path d="M31.9616 199.911L29.4426 195.892L30.4286 193.594L32.1363 192.151L33.844 190.707L36.6131 193.637L37.4386 197.038L31.9616 199.911Z" fill="url(#paint9_linear_530_226)"/>
<path d="M31.9616 199.911L29.4426 195.892L30.4286 193.594L32.1363 192.151L33.844 190.707L36.6131 193.637L37.4386 197.038L31.9616 199.911Z" fill="url(#paint10_linear_530_226)"/>
<path d="M29.6 263L37 240.765L29.6 230.882L19.7333 225.941L9.86667 221L0 238.294V255.588L29.6 263Z" fill="url(#paint11_linear_530_226)"/>
<path d="M29.6 263L37 240.765L29.6 230.882L19.7333 225.941L9.86667 221L0 238.294V255.588L29.6 263Z" fill="url(#paint12_linear_530_226)"/>
<path d="M34.6 258L42 235.765L34.6 225.882L24.7333 220.941L14.8667 216L5 233.294V250.588L34.6 258Z" fill="url(#paint13_linear_530_226)"/>
<path d="M34.6 258L42 235.765L34.6 225.882L24.7333 220.941L14.8667 216L5 233.294V250.588L34.6 258Z" fill="url(#paint14_linear_530_226)"/>
<path d="M11.2759 205.026L13.1779 203.441L14.4355 203.789L15.3022 204.571L16.1688 205.353L14.8481 206.991L13.1467 207.657L11.2759 205.026Z" fill="url(#paint15_linear_530_226)"/>
<path d="M11.2759 205.026L13.1779 203.441L14.4355 203.789L15.3022 204.571L16.1688 205.353L14.8481 206.991L13.1467 207.657L11.2759 205.026Z" fill="url(#paint16_linear_530_226)"/>
<path d="M11.5718 204.35L13.4738 202.764L14.7314 203.113L15.598 203.895L16.4647 204.677L15.1439 206.315L13.4426 206.981L11.5718 204.35Z" fill="url(#paint17_linear_530_226)"/>
<path d="M11.5718 204.35L13.4738 202.764L14.7314 203.113L15.598 203.895L16.4647 204.677L15.1439 206.315L13.4426 206.981L11.5718 204.35Z" fill="url(#paint18_linear_530_226)"/>
<path d="M53.7646 224.004L56.2211 223.693L57.0926 224.665L57.4013 225.79L57.71 226.916L55.7146 227.584L53.9226 227.228L53.7646 224.004Z" fill="url(#paint19_linear_530_226)"/>
<path d="M53.7646 224.004L56.2211 223.693L57.0926 224.665L57.4013 225.79L57.71 226.916L55.7146 227.584L53.9226 227.228L53.7646 224.004Z" fill="url(#paint20_linear_530_226)"/>
<path d="M54.3783 223.594L56.8348 223.283L57.7063 224.254L58.015 225.38L58.3237 226.506L56.3283 227.174L54.5363 226.818L54.3783 223.594Z" fill="url(#paint21_linear_530_226)"/>
<path d="M54.3783 223.594L56.8348 223.283L57.7063 224.254L58.015 225.38L58.3237 226.506L56.3283 227.174L54.5363 226.818L54.3783 223.594Z" fill="url(#paint22_linear_530_226)"/>
<path d="M44.9968 180.635L46.0177 180.284L46.4761 180.621L46.7078 181.074L46.9396 181.528L46.1473 181.99L45.3508 181.997L44.9968 180.635Z" fill="url(#paint23_linear_530_226)"/>
<path d="M44.9968 180.635L46.0177 180.284L46.4761 180.621L46.7078 181.074L46.9396 181.528L46.1473 181.99L45.3508 181.997L44.9968 180.635Z" fill="url(#paint24_linear_530_226)"/>
<path d="M45.2223 180.405L46.2433 180.055L46.7016 180.392L46.9334 180.845L47.1651 181.298L46.3729 181.76L45.5763 181.768L45.2223 180.405Z" fill="url(#paint25_linear_530_226)"/>
<path d="M45.2223 180.405L46.2433 180.055L46.7016 180.392L46.9334 180.845L47.1651 181.298L46.3729 181.76L45.5763 181.768L45.2223 180.405Z" fill="url(#paint26_linear_530_226)"/>
<path d="M19.8681 181.342L22.2565 180.689L23.2561 181.528L23.7201 182.599L24.1841 183.67L22.3026 184.613L20.4783 184.513L19.8681 181.342Z" fill="url(#paint27_linear_530_226)"/>
<path d="M19.8681 181.342L22.2565 180.689L23.2561 181.528L23.7201 182.599L24.1841 183.67L22.3026 184.613L20.4783 184.513L19.8681 181.342Z" fill="url(#paint28_linear_530_226)"/>
<path d="M20.418 180.85L22.8064 180.197L23.8059 181.036L24.27 182.107L24.734 183.178L22.8525 184.12L21.0282 184.02L20.418 180.85Z" fill="url(#paint29_linear_530_226)"/>
<path d="M20.418 180.85L22.8064 180.197L23.8059 181.036L24.27 182.107L24.734 183.178L22.8525 184.12L21.0282 184.02L20.418 180.85Z" fill="url(#paint30_linear_530_226)"/>
<path d="M17.9899 203.998C20.9861 202.324 26.9899 203.977 29 208.473" stroke="white" stroke-width="0.5" stroke-dasharray="2 2"/>
<path d="M52.1575 224.191C51.033 222.392 45.4741 222.021 43.2785 222.641" stroke="white" stroke-width="0.5" stroke-dasharray="2 2"/>
<path d="M34.8629 201.265C35.0987 202.237 34.9666 203.813 34.0974 205.592" stroke="white" stroke-width="0.5" stroke-dasharray="2 2"/>
<path d="M49 184C48.9356 186.999 45.5 193 43.7134 194.433" stroke="white" stroke-width="0.5" stroke-dasharray="2 2"/>
<path d="M28.7596 192.192C27.4644 194.898 27.0356 197.86 27.2492 200.351" stroke="white" stroke-width="0.5" stroke-dasharray="2 2"/>
<path d="M101.531 155.572C101.246 158.63 89.6394 166.531 83.8716 170.099C83.0067 174.158 75.1826 178.855 77.8359 176.898C79.9585 175.332 75.8777 172.543 73.572 171.345C75.0712 167.568 76.0198 167.147 79.1982 165.416C82.3766 163.685 91.3671 148.647 94.1778 147.296C96.9884 145.946 101.887 151.749 101.531 155.572Z" fill="url(#paint31_linear_530_226)"/>
<path d="M73.4739 171.267C76.6223 170.7 78.1839 174.278 78.5712 176.138C73.8457 180.196 64.1954 188.601 63.3977 189.762C62.6001 190.922 62.3408 193.646 62.3108 194.863L38.1778 220.396L31.6877 213.451L54.0018 189.996C54.6105 189.112 56.4702 187.345 59.0396 187.342C61.6089 187.339 62.5006 186.168 62.6253 185.583C66.1753 181.122 73.3149 172.013 73.4739 171.267Z" fill="url(#paint32_linear_530_226)"/>
<path d="M61.5826 191.022L39.2151 216.702L34.7337 212.708C42.5907 204.807 57.9725 189.989 59.9866 189.363C62.0006 188.737 61.8898 190.208 61.5826 191.022Z" fill="url(#paint33_linear_530_226)"/>
<defs>
<linearGradient id="paint0_linear_530_226" x1="165.577" y1="255.208" x2="165.577" y2="272.929" gradientUnits="userSpaceOnUse">
<stop stop-color="#8B7E76"/>
<stop offset="1" stop-color="#9C8C83"/>
</linearGradient>
<linearGradient id="paint1_linear_530_226" x1="165.5" y1="189" x2="156" y2="231" gradientUnits="userSpaceOnUse">
<stop offset="0.486578" stop-color="#E9E4DA"/>
<stop offset="1" stop-color="#DCD4C3"/>
</linearGradient>
<linearGradient id="paint2_linear_530_226" x1="209.5" y1="90.4998" x2="151" y2="219" gradientUnits="userSpaceOnUse">
<stop stop-color="#867D7D"/>
<stop offset="0.904837" stop-color="#7E7171"/>
<stop offset="1" stop-color="#7D6F6F"/>
<stop offset="1" stop-color="#796B6B"/>
</linearGradient>
<radialGradient id="paint3_radial_530_226" cx="0" cy="0" r="1" gradientUnits="userSpaceOnUse" gradientTransform="translate(170 146) rotate(105.55) scale(59.6846 109.079)">
<stop offset="0.550447" stop-color="#E9E4DA"/>
<stop offset="1" stop-color="#D7CAB0"/>
</radialGradient>
<linearGradient id="paint4_linear_530_226" x1="144" y1="22" x2="147.5" y2="102" gradientUnits="userSpaceOnUse">
<stop offset="0.302881" stop-color="#E9E4DA"/>
<stop offset="1" stop-color="#DFD4BF"/>
</linearGradient>
<linearGradient id="paint5_linear_530_226" x1="124" y1="41.5" x2="141" y2="109" gradientUnits="userSpaceOnUse">
<stop offset="0.309741" stop-color="#E9E4DA"/>
<stop offset="0.827292" stop-color="#C4B496"/>
</linearGradient>
<linearGradient id="paint6_linear_530_226" x1="185.5" y1="71" x2="128.5" y2="99" gradientUnits="userSpaceOnUse">
<stop stop-color="#938C8C"/>
<stop offset="1" stop-color="#7A7272"/>
</linearGradient>
<linearGradient id="paint7_linear_530_226" x1="33.3511" y1="191.856" x2="35.3558" y2="200.116" gradientUnits="userSpaceOnUse">
<stop stop-color="#FDC694"/>
<stop offset="1" stop-color="#854913"/>
</linearGradient>
<linearGradient id="paint8_linear_530_226" x1="33.3511" y1="191.856" x2="35.3558" y2="200.116" gradientUnits="userSpaceOnUse">
<stop stop-color="#FDC694"/>
<stop offset="1" stop-color="#854913"/>
</linearGradient>
<linearGradient id="paint9_linear_530_226" x1="32.1434" y1="191.12" x2="34.1481" y2="199.38" gradientUnits="userSpaceOnUse">
<stop stop-color="#FDC694"/>
<stop offset="1" stop-color="#854913"/>
</linearGradient>
<linearGradient id="paint10_linear_530_226" x1="32.1434" y1="191.12" x2="36.6884" y2="200.307" gradientUnits="userSpaceOnUse">
<stop stop-color="#FFF1E4"/>
<stop offset="1" stop-color="#AF6622"/>
</linearGradient>
<linearGradient id="paint11_linear_530_226" x1="18.5" y1="221" x2="18.5" y2="263" gradientUnits="userSpaceOnUse">
<stop stop-color="#FDC694"/>
<stop offset="1" stop-color="#854913"/>
</linearGradient>
<linearGradient id="paint12_linear_530_226" x1="18.5" y1="221" x2="18.5" y2="263" gradientUnits="userSpaceOnUse">
<stop stop-color="#FDC694"/>
<stop offset="1" stop-color="#854913"/>
</linearGradient>
<linearGradient id="paint13_linear_530_226" x1="23.5" y1="216" x2="23.5" y2="258" gradientUnits="userSpaceOnUse">
<stop stop-color="#FDC694"/>
<stop offset="1" stop-color="#854913"/>
</linearGradient>
<linearGradient id="paint14_linear_530_226" x1="23.5" y1="216" x2="12.3664" y2="265.404" gradientUnits="userSpaceOnUse">
<stop stop-color="#FFF1E4"/>
<stop offset="1" stop-color="#AF6622"/>
</linearGradient>
<linearGradient id="paint15_linear_530_226" x1="15.8358" y1="204.503" x2="11.704" y2="206.12" gradientUnits="userSpaceOnUse">
<stop stop-color="#FDC694"/>
<stop offset="1" stop-color="#854913"/>
</linearGradient>
<linearGradient id="paint16_linear_530_226" x1="15.8358" y1="204.503" x2="11.704" y2="206.12" gradientUnits="userSpaceOnUse">
<stop stop-color="#FDC694"/>
<stop offset="1" stop-color="#854913"/>
</linearGradient>
<linearGradient id="paint17_linear_530_226" x1="16.1317" y1="203.826" x2="11.9999" y2="205.443" gradientUnits="userSpaceOnUse">
<stop stop-color="#FDC694"/>
<stop offset="1" stop-color="#854913"/>
</linearGradient>
<linearGradient id="paint18_linear_530_226" x1="16.1317" y1="203.826" x2="11.6989" y2="206.822" gradientUnits="userSpaceOnUse">
<stop stop-color="#FFF1E4"/>
<stop offset="1" stop-color="#AF6622"/>
</linearGradient>
<linearGradient id="paint19_linear_530_226" x1="57.8879" y1="226.02" x2="53.5358" y2="225.156" gradientUnits="userSpaceOnUse">
<stop stop-color="#FDC694"/>
<stop offset="1" stop-color="#854913"/>
</linearGradient>
<linearGradient id="paint20_linear_530_226" x1="57.8879" y1="226.02" x2="53.5358" y2="225.156" gradientUnits="userSpaceOnUse">
<stop stop-color="#FDC694"/>
<stop offset="1" stop-color="#854913"/>
</linearGradient>
<linearGradient id="paint21_linear_530_226" x1="58.5016" y1="225.61" x2="54.1495" y2="224.746" gradientUnits="userSpaceOnUse">
<stop stop-color="#FDC694"/>
<stop offset="1" stop-color="#854913"/>
</linearGradient>
<linearGradient id="paint22_linear_530_226" x1="58.5016" y1="225.61" x2="53.1527" y2="225.745" gradientUnits="userSpaceOnUse">
<stop stop-color="#FFF1E4"/>
<stop offset="1" stop-color="#AF6622"/>
</linearGradient>
<linearGradient id="paint23_linear_530_226" x1="46.9359" y1="181.129" x2="45.0016" y2="181.147" gradientUnits="userSpaceOnUse">
<stop stop-color="#FDC694"/>
<stop offset="1" stop-color="#854913"/>
</linearGradient>
<linearGradient id="paint24_linear_530_226" x1="46.9359" y1="181.129" x2="45.0016" y2="181.147" gradientUnits="userSpaceOnUse">
<stop stop-color="#FDC694"/>
<stop offset="1" stop-color="#854913"/>
</linearGradient>
<linearGradient id="paint25_linear_530_226" x1="47.1615" y1="180.9" x2="45.2271" y2="180.917" gradientUnits="userSpaceOnUse">
<stop stop-color="#FDC694"/>
<stop offset="1" stop-color="#854913"/>
</linearGradient>
<linearGradient id="paint26_linear_530_226" x1="47.1615" y1="180.9" x2="44.8905" y2="181.433" gradientUnits="userSpaceOnUse">
<stop stop-color="#FFF1E4"/>
<stop offset="1" stop-color="#AF6622"/>
</linearGradient>
<linearGradient id="paint27_linear_530_226" x1="24.2342" y1="182.758" x2="19.8038" y2="182.515" gradientUnits="userSpaceOnUse">
<stop stop-color="#FDC694"/>
<stop offset="1" stop-color="#854913"/>
</linearGradient>
<linearGradient id="paint28_linear_530_226" x1="24.2342" y1="182.758" x2="19.8038" y2="182.515" gradientUnits="userSpaceOnUse">
<stop stop-color="#FDC694"/>
<stop offset="1" stop-color="#854913"/>
</linearGradient>
<linearGradient id="paint29_linear_530_226" x1="24.784" y1="182.266" x2="20.3536" y2="182.023" gradientUnits="userSpaceOnUse">
<stop stop-color="#FDC694"/>
<stop offset="1" stop-color="#854913"/>
</linearGradient>
<linearGradient id="paint30_linear_530_226" x1="24.784" y1="182.266" x2="19.5074" y2="183.152" gradientUnits="userSpaceOnUse">
<stop stop-color="#FFF1E4"/>
<stop offset="1" stop-color="#AF6622"/>
</linearGradient>
<linearGradient id="paint31_linear_530_226" x1="76.9337" y1="175.823" x2="102.756" y2="143.643" gradientUnits="userSpaceOnUse">
<stop stop-color="#BD8025"/>
<stop offset="0.265625" stop-color="#E0AC5C"/>
<stop offset="1" stop-color="#B17721"/>
</linearGradient>
<linearGradient id="paint32_linear_530_226" x1="35.8137" y1="218.894" x2="73.879" y2="170.988" gradientUnits="userSpaceOnUse">
<stop stop-color="#C6C6C6"/>
<stop offset="1" stop-color="#888888"/>
</linearGradient>
<linearGradient id="paint33_linear_530_226" x1="45.0447" y1="217.944" x2="51.8623" y2="185.95" gradientUnits="userSpaceOnUse">
<stop stop-color="#D9D9D9"/>
<stop offset="1" stop-color="white" stop-opacity="0.83"/>
</linearGradient>
</defs>
</svg>