<svg width="64" height="52" viewBox="0 0 64 52" fill="none" xmlns="http://www.w3.org/2000/svg">
    <path d="M51.21 19.9999L50.39 21.4299C50.09 21.9599 49.45 22.1799 48.88 21.9699C47.7 21.5299 46.62 20.8999 45.67 20.1099C45.21 19.7299 45.09 19.0599 45.39 18.5399L46.21 17.1099C45.52 16.3099 44.98 15.3799 44.62 14.3699H42.97C42.37 14.3699 41.85 13.9399 41.75 13.3399C41.55 12.1399 41.54 10.8799 41.75 9.62989C41.85 9.02989 42.37 8.58989 42.97 8.58989H44.62C44.98 7.57989 45.52 6.64989 46.21 5.84989L45.39 4.41989C45.09 3.89989 45.2 3.22989 45.67 2.84989C46.62 2.05989 47.71 1.42989 48.88 0.989895C49.45 0.779895 50.09 0.999895 50.39 1.52989L51.21 2.95989C52.26 2.76989 53.33 2.76989 54.38 2.95989L55.2 1.52989C55.5 0.999895 56.14 0.779895 56.71 0.989895C57.89 1.42989 58.97 2.05989 59.92 2.84989C60.38 3.22989 60.5 3.89989 60.2 4.41989L59.38 5.84989C60.07 6.64989 60.61 7.57989 60.97 8.58989H62.62C63.22 8.58989 63.74 9.01989 63.84 9.61989C64.04 10.8199 64.05 12.0799 63.84 13.3299C63.74 13.9299 63.22 14.3699 62.62 14.3699H60.97C60.61 15.3799 60.07 16.3099 59.38 17.1099L60.2 18.5399C60.5 19.0599 60.39 19.7299 59.92 20.1099C58.97 20.8999 57.88 21.5299 56.71 21.9699C56.14 22.1799 55.5 21.9599 55.2 21.4299L54.38 19.9999C53.34 20.1899 52.26 20.1899 51.21 19.9999ZM50.16 14.1199C54.01 17.0799 58.4 12.6899 55.44 8.83989C51.59 5.86989 47.2 10.2699 50.16 14.1199ZM38.63 29.5099L42 31.1899C43.01 31.7699 43.45 32.9999 43.05 34.0999C42.16 36.5199 40.41 38.7399 38.79 40.6799C38.05 41.5699 36.77 41.7899 35.76 41.2099L32.85 39.5299C31.25 40.8999 29.39 41.9899 27.36 42.6999V46.0599C27.36 47.2199 26.53 48.2199 25.39 48.4199C22.93 48.8399 20.35 48.8599 17.8 48.4199C16.65 48.2199 15.8 47.2299 15.8 46.0599V42.6999C13.77 41.9799 11.91 40.8999 10.31 39.5299L7.39996 41.1999C6.39996 41.7799 5.10996 41.5599 4.36996 40.6699C2.74996 38.7299 1.03996 36.5099 0.149962 34.0999C-0.250038 33.0099 0.189962 31.7799 1.19996 31.1899L4.52996 29.5099C4.13996 27.4199 4.13996 25.2699 4.52996 23.1699L1.19996 21.4799C0.189962 20.8999 -0.260038 19.6699 0.149962 18.5799C1.03996 16.1599 2.74996 13.9399 4.36996 11.9999C5.10996 11.1099 6.38996 10.8899 7.39996 11.4699L10.31 13.1499C11.91 11.7799 13.77 10.6899 15.8 9.97989V6.60989C15.8 5.45989 16.62 4.45989 17.76 4.25989C20.22 3.83989 22.81 3.81989 25.36 4.24989C26.51 4.44989 27.36 5.43989 27.36 6.60989V9.96989C29.39 10.6899 31.25 11.7699 32.85 13.1399L35.76 11.4599C36.76 10.8799 38.05 11.0999 38.79 11.9899C40.41 13.9299 42.11 16.1499 43 18.5699C43.4 19.6599 43.01 20.8899 42 21.4799L38.63 23.1599C39.02 25.2599 39.02 27.4099 38.63 29.5099ZM26.87 31.6199C32.79 23.9199 24 15.1299 16.3 21.0499C10.38 28.7499 19.17 37.5399 26.87 31.6199ZM51.21 49.8899L50.39 51.3199C50.09 51.8499 49.45 52.0699 48.88 51.8599C47.7 51.4199 46.62 50.7899 45.67 49.9999C45.21 49.6199 45.09 48.9499 45.39 48.4299L46.21 46.9999C45.52 46.1999 44.98 45.2699 44.62 44.2599H42.97C42.37 44.2599 41.85 43.8299 41.75 43.2299C41.55 42.0299 41.54 40.7699 41.75 39.5199C41.85 38.9199 42.37 38.4799 42.97 38.4799H44.62C44.98 37.4699 45.52 36.5399 46.21 35.7399L45.39 34.3099C45.09 33.7899 45.2 33.1199 45.67 32.7399C46.62 31.9499 47.71 31.3199 48.88 30.8799C49.45 30.6699 50.09 30.8899 50.39 31.4199L51.21 32.8499C52.26 32.6599 53.33 32.6599 54.38 32.8499L55.2 31.4199C55.5 30.8899 56.14 30.6699 56.71 30.8799C57.89 31.3199 58.97 31.9499 59.92 32.7399C60.38 33.1199 60.5 33.7899 60.2 34.3099L59.38 35.7399C60.07 36.5399 60.61 37.4699 60.97 38.4799H62.62C63.22 38.4799 63.74 38.9099 63.84 39.5099C64.04 40.7099 64.05 41.9699 63.84 43.2199C63.74 43.8199 63.22 44.2599 62.62 44.2599H60.97C60.61 45.2699 60.07 46.1999 59.38 46.9999L60.2 48.4299C60.5 48.9499 60.39 49.6199 59.92 49.9999C58.97 50.7899 57.88 51.4199 56.71 51.8599C56.14 52.0699 55.5 51.8499 55.2 51.3199L54.38 49.8899C53.34 50.0799 52.26 50.0799 51.21 49.8899ZM50.16 43.9999C54.01 46.9599 58.4 42.5699 55.44 38.7199C51.59 35.7599 47.2 40.1499 50.16 43.9999Z" fill="#0D272D"/>
</svg>