<svg width="64" height="58" viewBox="0 0 64 58" fill="none" xmlns="http://www.w3.org/2000/svg">
  <path d="M58.6667 0.555542H5.33333C2.38889 0.555542 0 2.94443 0 5.88888V41.4444C0 44.3889 2.38889 46.7778 5.33333 46.7778H26.6667L24.8889 52.1111H16.8889C15.4111 52.1111 14.2222 53.3 14.2222 54.7778C14.2222 56.2555 15.4111 57.4444 16.8889 57.4444H47.1111C48.5889 57.4444 49.7778 56.2555 49.7778 54.7778C49.7778 53.3 48.5889 52.1111 47.1111 52.1111H39.1111L37.3333 46.7778H58.6667C61.6111 46.7778 64 44.3889 64 41.4444V5.88888C64 2.94443 61.6111 0.555542 58.6667 0.555542ZM56.8889 39.6667H7.11111V7.66665H56.8889V39.6667Z" fill="#0D272D"/>
</svg>