<svg width="64" height="33" viewBox="0 0 64 33" fill="none" xmlns="http://www.w3.org/2000/svg">
    <path d="M48.0068 0.5H15.9998C13.3618 0.499623 10.7645 1.15156 8.43934 2.39775C6.11416 3.64395 4.1332 5.44575 2.67281 7.64274C1.21243 9.83972 0.317936 12.3637 0.0689723 14.99C-0.179992 17.6163 0.224298 20.2635 1.24585 22.6957C2.2674 25.128 3.87451 27.2699 5.92411 28.9308C7.9737 30.5917 10.4022 31.7201 12.9933 32.2154C15.5845 32.7108 18.2579 32.5577 20.7756 31.7699C23.2933 30.9821 25.5772 29.584 27.4238 27.7H36.5758C38.4223 29.5838 40.7058 30.9818 43.2232 31.7696C45.7406 32.5575 48.4137 32.7108 51.0046 32.2158C53.5956 31.7208 56.0239 30.5929 58.0735 28.9325C60.1232 27.2721 61.7305 25.1307 62.7525 22.6989C63.7744 20.2672 64.1793 17.6205 63.9311 14.9944C63.6829 12.3683 62.7893 9.84433 61.3298 7.64711C59.8703 5.44989 57.8902 3.6476 55.5657 2.40065C53.2413 1.1537 50.6446 0.500778 48.0068 0.5ZM24.7998 17.7C24.7998 18.0183 24.6734 18.3235 24.4484 18.5485C24.2233 18.7736 23.9181 18.9 23.5998 18.9H18.3998V24.1C18.3998 24.4183 18.2734 24.7235 18.0484 24.9485C17.8233 25.1736 17.5181 25.3 17.1998 25.3H14.7998C14.4816 25.3 14.1764 25.1736 13.9513 24.9485C13.7263 24.7235 13.5998 24.4183 13.5998 24.1V18.9H8.39985C8.08159 18.9 7.77636 18.7736 7.55132 18.5485C7.32628 18.3235 7.19985 18.0183 7.19985 17.7V15.3C7.19985 14.9817 7.32628 14.6765 7.55132 14.4515C7.77636 14.2264 8.08159 14.1 8.39985 14.1H13.5998V8.9C13.5998 8.58174 13.7263 8.27652 13.9513 8.05147C14.1764 7.82643 14.4816 7.7 14.7998 7.7H17.1998C17.5181 7.7 17.8233 7.82643 18.0484 8.05147C18.2734 8.27652 18.3998 8.58174 18.3998 8.9V14.1H23.5998C23.9181 14.1 24.2233 14.2264 24.4484 14.4515C24.6734 14.6765 24.7998 14.9817 24.7998 15.3V17.7ZM46.3998 25.3C45.6087 25.3 44.8354 25.0654 44.1776 24.6259C43.5198 24.1864 43.0071 23.5616 42.7043 22.8307C42.4016 22.0998 42.3224 21.2956 42.4767 20.5196C42.631 19.7437 43.012 19.031 43.5714 18.4716C44.1308 17.9122 44.8436 17.5312 45.6195 17.3769C46.3954 17.2225 47.1997 17.3017 47.9306 17.6045C48.6615 17.9072 49.2862 18.4199 49.7257 19.0777C50.1652 19.7355 50.3998 20.5089 50.3998 21.3C50.3998 22.3609 49.9784 23.3783 49.2283 24.1284C48.4781 24.8786 47.4607 25.3 46.3998 25.3ZM52.7998 15.7C52.0087 15.7 51.2354 15.4654 50.5776 15.0259C49.9198 14.5864 49.4071 13.9616 49.1043 13.2307C48.8016 12.4998 48.7224 11.6956 48.8767 10.9196C49.031 10.1437 49.412 9.43098 49.9714 8.87157C50.5308 8.31216 51.2436 7.9312 52.0195 7.77686C52.7954 7.62252 53.5997 7.70173 54.3306 8.00448C55.0615 8.30723 55.6862 8.81992 56.1257 9.47772C56.5652 10.1355 56.7998 10.9089 56.7998 11.7C56.7998 12.7609 56.3784 13.7783 55.6283 14.5284C54.8781 15.2786 53.8607 15.7 52.7998 15.7Z" fill="#0D272D"/>
</svg>