<svg width="70" height="71" viewBox="0 0 70 71" fill="none" xmlns="http://www.w3.org/2000/svg">
<path d="M34.9409 18.0312C25.0246 18.0312 17.0261 26.0469 17.0261 35.9844C17.0261 45.9219 25.0246 53.9375 34.9409 53.9375C44.8573 53.9375 52.8558 45.9219 52.8558 35.9844C52.8558 26.0469 44.8573 18.0312 34.9409 18.0312ZM34.9409 47.6563C28.5328 47.6563 23.2939 42.4219 23.2939 35.9844C23.2939 29.5469 28.5172 24.3125 34.9409 24.3125C41.3647 24.3125 46.5879 29.5469 46.5879 35.9844C46.5879 42.4219 41.3491 47.6563 34.9409 47.6563ZM57.7672 17.2969C57.7672 19.625 55.8962 21.4844 53.5886 21.4844C51.2654 21.4844 49.41 19.6094 49.41 17.2969C49.41 14.9844 51.281 13.1094 53.5886 13.1094C55.8962 13.1094 57.7672 14.9844 57.7672 17.2969ZM69.6324 21.5469C69.3674 15.9375 68.0889 10.9688 63.9882 6.875C59.9032 2.78125 54.9451 1.5 49.3477 1.21875C43.5787 0.890625 26.2876 0.890625 20.5186 1.21875C14.9368 1.48438 9.97865 2.76562 5.87804 6.85938C1.77743 10.9531 0.514501 15.9219 0.23385 21.5313C-0.0935751 27.3125 -0.0935751 44.6406 0.23385 50.4219C0.498909 56.0312 1.77743 61 5.87804 65.0938C9.97865 69.1875 14.9212 70.4688 20.5186 70.75C26.2876 71.0781 43.5787 71.0781 49.3477 70.75C54.9451 70.4844 59.9032 69.2031 63.9882 65.0938C68.0733 61 69.3518 56.0312 69.6324 50.4219C69.9599 44.6406 69.9599 27.3281 69.6324 21.5469ZM62.1796 56.625C60.9635 59.6875 58.6091 62.0469 55.5376 63.2813C50.938 65.1094 40.0238 64.6875 34.9409 64.6875C29.8581 64.6875 18.9283 65.0938 14.3443 63.2813C11.2884 62.0625 8.93401 59.7031 7.70227 56.625C5.87804 52.0156 6.29902 41.0781 6.29902 35.9844C6.29902 30.8906 5.89363 19.9375 7.70227 15.3438C8.91842 12.2813 11.2728 9.92188 14.3443 8.6875C18.9439 6.85938 29.8581 7.28125 34.9409 7.28125C40.0238 7.28125 50.9536 6.875 55.5376 8.6875C58.5935 9.90625 60.9479 12.2656 62.1796 15.3438C64.0038 19.9531 63.5829 30.8906 63.5829 35.9844C63.5829 41.0781 64.0038 52.0313 62.1796 56.625Z" fill="#233B92"/>
</svg>
