<svg width="71" height="70" viewBox="0 0 71 70" fill="none" xmlns="http://www.w3.org/2000/svg">
<path d="M65.9226 0H5.84048C3.08744 0 0.850586 2.26563 0.850586 5.04688V64.9531C0.850586 67.7344 3.08744 70 5.84048 70H65.9226C68.6756 70 70.9281 67.7344 70.9281 64.9531V5.04688C70.9281 2.26563 68.6756 0 65.9226 0ZM22.0303 60H11.6438V26.5938H22.0459V60H22.0303ZM16.837 22.0312C13.5052 22.0312 10.8147 19.3281 10.8147 16.0156C10.8147 12.7031 13.5052 10 16.837 10C20.1532 10 22.8593 12.7031 22.8593 16.0156C22.8593 19.3438 20.1688 22.0312 16.837 22.0312ZM60.964 60H50.5775V43.75C50.5775 39.875 50.4993 34.8906 45.1809 34.8906C39.7686 34.8906 38.9396 39.1094 38.9396 43.4688V60H28.5531V26.5938H38.5173V31.1562H38.658C40.0502 28.5312 43.4446 25.7656 48.497 25.7656C59.0087 25.7656 60.964 32.6875 60.964 41.6875V60Z" fill="#233B92"/>
</svg>
