<svg width="80" height="60" viewBox="0 0 80 60" fill="none" xmlns="http://www.w3.org/2000/svg">
<path d="M78.4844 19.8125C79.0938 19.3281 80 19.7812 80 20.5469V52.5C80 56.6406 76.6406 60 72.5 60H7.5C3.35938 60 0 56.6406 0 52.5V20.5625C0 19.7812 0.890625 19.3438 1.51562 19.8281C5.01562 22.5469 9.65625 26 25.5938 37.5781C28.8906 39.9844 34.4531 45.0469 40 45.0156C45.5781 45.0625 51.25 39.8906 54.4219 37.5781C70.3594 26 74.9844 22.5312 78.4844 19.8125ZM40 40C43.625 40.0625 48.8438 35.4375 51.4688 33.5312C72.2031 18.4844 73.7812 17.1719 78.5625 13.4219C79.4688 12.7187 80 11.625 80 10.4688V7.5C80 3.35938 76.6406 0 72.5 0H7.5C3.35938 0 0 3.35938 0 7.5V10.4688C0 11.625 0.53125 12.7031 1.4375 13.4219C6.21875 17.1562 7.79688 18.4844 28.5312 33.5312C31.1562 35.4375 36.375 40.0625 40 40Z" fill="#233B92"/>
</svg>
