<svg width="64" height="65" viewBox="0 0 64 65" fill="none" xmlns="http://www.w3.org/2000/svg">
    <path d="M62.6374 49.9625L47.9999 35.325C45.1124 32.4375 40.7999 31.875 37.3249 33.5875L23.9999 20.2625V12.5L7.9999 0.5L-9.77525e-05 8.5L11.9999 24.5H19.7624L33.0874 37.825C31.3874 41.3 31.9374 45.6125 34.8249 48.5L49.4624 63.1375C51.2874 64.9625 54.2374 64.9625 56.0499 63.1375L62.6374 56.55C64.4499 54.725 64.4499 51.775 62.6374 49.9625ZM41.4624 28.625C44.9999 28.625 48.3249 30 50.8249 32.5L53.2499 34.925C55.2249 34.0625 57.0999 32.8625 58.7249 31.2375C63.3624 26.6 64.9374 20.075 63.4624 14.15C63.1874 13.025 61.7749 12.6375 60.9499 13.4625L51.6499 22.7625L43.1624 21.35L41.7499 12.8625L51.0499 3.5625C51.8749 2.7375 51.4749 1.325 50.3374 1.0375C44.4124 -0.425 37.8874 1.15 33.2624 5.775C29.6999 9.3375 28.0249 14.0375 28.1124 18.725L38.3749 28.9875C39.3874 28.75 40.4374 28.625 41.4624 28.625ZM28.4749 38.875L21.3874 31.7875L2.3374 50.85C-0.787598 53.975 -0.787598 59.0375 2.3374 62.1625C5.4624 65.2875 10.5249 65.2875 13.6499 62.1625L29.0999 46.7125C28.1499 44.225 27.8624 41.5125 28.4749 38.875ZM7.9999 59.5C6.3499 59.5 4.9999 58.15 4.9999 56.5C4.9999 54.8375 6.3374 53.5 7.9999 53.5C9.6624 53.5 10.9999 54.8375 10.9999 56.5C10.9999 58.15 9.6624 59.5 7.9999 59.5Z" fill="#0D272D"/>
</svg>