<svg width="86" height="60" viewBox="0 0 86 60" fill="none" xmlns="http://www.w3.org/2000/svg">
<path d="M83.3388 9.38797C82.3628 5.69266 79.4871 2.78234 75.8359 1.79469C69.2178 0 42.6801 0 42.6801 0C42.6801 0 16.1425 0 9.52424 1.79469C5.87303 2.7825 2.99737 5.69266 2.02136 9.38797C0.248047 16.0859 0.248047 30.0606 0.248047 30.0606C0.248047 30.0606 0.248047 44.0353 2.02136 50.7333C2.99737 54.4286 5.87303 57.2177 9.52424 58.2053C16.1425 60 42.6801 60 42.6801 60C42.6801 60 69.2177 60 75.8359 58.2053C79.4871 57.2177 82.3628 54.4286 83.3388 50.7333C85.1121 44.0353 85.1121 30.0606 85.1121 30.0606C85.1121 30.0606 85.1121 16.0859 83.3388 9.38797ZM34.0007 42.7486V17.3727L56.181 30.0609L34.0007 42.7486Z" fill="#233B92"/>
</svg>
