<svg xmlns="http://www.w3.org/2000/svg" width="300" height="300" viewBox="0 0 3000 3000">
  <path fill="#fff" d="M2785.14 1750a1301.652 1301.652 0 01-199.7 481.88l152 152-353.56 353.56-152-152A1301.652 1301.652 0 011750 2785.14V3000H1250V2785.14a1301.705 1301.705 0 01-481.884-199.7l-152 152L262.563 2383.88l152-152A1301.692 1301.692 0 01214.859 1750H0V1250H214.859a1301.746 1301.746 0 01199.7-481.884l-152-152L616.117 262.563l152 152A1301.746 1301.746 0 011250 214.859V0h500V214.859a1301.692 1301.692 0 01481.88 199.7l152-152 353.56 353.554-152 152A1301.705 1301.705 0 012785.14 1250H3000v500H2785.14ZM1500 425C906.294 425 425 906.294 425 1500S906.294 2575 1500 2575s1075-481.29 1075-1075S2093.71 425 1500 425Zm494 251.708V1176L874 1656s0 0 0-883.826a959.554 959.554 0 01280-167.912V1375l560-240s0 0 0-571.045A954 954 0 011994 676.708ZM1846 2395.74V1513l-560 240s0 0 0 683.05a954.291 954.291 0 01-280-112.76V1712l1120-480s0 0 0 995.83A959.588 959.588 0 011846 2395.74Z"/>
</svg>
