<?xml version="1.0" encoding="utf-8"?>
<!-- Generator: Adobe Illustrator 25.4.1, SVG Export Plug-In . SVG Version: 6.00 Build 0)  -->
<svg version="1.1" id="Layer_1" xmlns="http://www.w3.org/2000/svg" xmlns:xlink="http://www.w3.org/1999/xlink" x="0px" y="0px"
	 viewBox="0 0 1000 1000" style="enable-background:new 0 0 1000 1000;" xml:space="preserve">
<style type="text/css">
	.st0{fill:url(#SVGID_1_);}
	.st1{fill:#190F33;}
</style>
<g>
	<linearGradient id="SVGID_1_" gradientUnits="userSpaceOnUse" x1="293.5333" y1="309.1119" x2="709.9794" y2="309.1119">
		<stop  offset="0.2" style="stop-color:#5F57A6"/>
		<stop  offset="1" style="stop-color:#6FCBD1"/>
	</linearGradient>
	<path class="st0" d="M624.1,399.2L624.1,399.2c5.5-22.1,8.4-44.9,8.4-68.2c0-85.8-39-166.5-105.4-219.9c38.2-22,81.4-33.5,126-33.5
		c16.9,0,33.6,1.7,49.9,4.9l6.9-27.8c-18.6-3.8-37.6-5.7-56.9-5.7c-54,0-106.1,15.2-151.3,44c-45.2-28.8-97.3-44-151.3-44
		c-19.3,0-38.3,1.9-56.9,5.7l6.9,27.8c16.3-3.3,33-4.9,50-4.9c44.6,0,87.8,11.5,126,33.5C410.1,164.5,371,245.2,371,331
		c0,93,45.8,180,122.6,232.7l8.1,5.6l8.1-5.6C567.4,524.2,607.6,465.4,624.1,399.2L624.1,399.2z M487.4,522.8
		C432,474.9,399.7,405.1,399.7,331c0-26,4-51.5,11.6-75.7c14.4,24,32.4,45.8,53.3,64.5c14.6,13.2,22.9,32,22.9,51.7V522.8z
		 M501.8,313.4C482.5,299,465.4,282,451,263c-19-25.1-19.1-59.6-0.1-84.7c14.3-19,31.4-36,50.9-50.6c19.8,14.7,37.1,32.1,51.5,51.4
		c18.4,24.6,18.3,58.5-0.1,83C538.6,281.6,521.3,298.8,501.8,313.4z M516.1,522.8V371.5c0-19.7,8.3-38.5,22.9-51.7
		c20.9-18.8,38.8-40.5,53.3-64.5c7.6,24.2,11.6,49.7,11.6,75.7C603.8,405.1,571.5,474.9,516.1,522.8z"/>
</g>
<g>
	<g>
		<g>
			<path class="st1" d="M313.1,929.6h56.5v15.3h-74.5V817.3h18V929.6z"/>
			<path class="st1" d="M580.2,896.8c0,30.5-18,50.7-42.5,50.7c-15.3,0-26.2-6.1-32.9-17v14.5H489V817.3h16.8v44.9
				c6.7-10.2,17.4-16,31.9-16C562.6,846.1,580.2,866.2,580.2,896.8z M563,896.8c0-21.7-11-36.4-27.8-36.4
				c-17.4,0-29.9,13.5-29.9,36.4c0,23.1,12.7,36.2,29.9,36.2C551.8,932.9,563,918.5,563,896.8z"/>
			<path class="st1" d="M427.9,845.9c-14.7,0-27.5,5.9-39,14.5v17.4c7.9-6.4,22.7-18,39.6-18c7.4,0,13.6,2.1,17.5,6.1
				c1.6,1.6,2.7,3.3,3.4,5c2.7,6.2-1.2,13.2-7.8,14.4l-12.2,2.2c-24.1,4.3-44.8,11-44.8,33.5c0,19.2,15.7,27,34.4,27
				c14.5,0,26.2-5.3,32.7-15.1v11.9H467V878C467,859.2,453.3,845.9,427.9,845.9z M451,895.3v13.5c0,15.8-13.5,25.2-30.1,25.2
				c-12.3,0-19.8-4.9-19.8-13.7c0-4.4,1.5-7.7,4.1-10.3C414.8,900.5,443,900.7,451,895.3z"/>
			<path class="st1" d="M637.1,888.1c-17.6-3.9-25.8-5.9-25.8-14.3c0-8.2,8-14.3,21.1-14.3c11.6,0,19.4,3.1,35.1,14.7v-17.7
				c-11.1-7.8-21.3-10.8-35.1-10.8c-22.3,0-37.4,11.7-37.4,28.6c0,16,9.4,21.7,35,27.2c15.5,3.3,27,6.3,27,16.8
				c0,9.6-9.4,15.3-21.9,15.3c-12.7,0-19.6-3.6-38.5-17.6l0,0.2v18.4c12.6,9.6,23.6,13,38.3,13c23.3,0,38.5-12.1,38.5-29.9
				C673.5,900.7,662.2,893.8,637.1,888.1z"/>
		</g>
		<g>
			<path class="st1" d="M283.1,742.4c0,30.1-19.6,50.9-47.5,50.9c-28.2,0-47.7-20.7-47.7-50.9c0-30.1,19.6-50.9,47.7-50.9
				C263.5,691.6,283.1,712.3,283.1,742.4z M205,742.4c0,21.7,11.9,36.8,30.5,36.8c18.6,0,30.3-15.1,30.3-36.8
				c0-21.7-11.7-36.8-30.3-36.8C217,705.7,205,720.7,205,742.4z"/>
			<path class="st1" d="M541.1,710.2c-5-1.4-9-2-12.7-2c-12.9,0-22.5,11.2-22.5,30.7v51.7H489v-96.3h15.8v14.5
				c4.5-9.4,12.5-16.1,23.9-16.1c8,0,12.3,2.4,12.3,2.4L541.1,710.2z"/>
			<path class="st1" d="M641.8,742.4c0,30.1-19.6,50.9-47.5,50.9c-28.2,0-47.7-20.7-47.7-50.9c0-30.1,19.6-50.9,47.7-50.9
				C622.2,691.6,641.8,712.3,641.8,742.4z M563.8,742.4c0,21.7,11.9,36.8,30.5,36.8c18.6,0,30.3-15.1,30.3-36.8
				c0-21.7-11.7-36.8-30.3-36.8C575.7,705.7,563.8,720.7,563.8,742.4z"/>
			<path class="st1" d="M700,691.6c-14.7,0-27.5,5.9-39,14.5v17.4c7.9-6.4,22.7-18,39.6-18c7.4,0,13.6,2.1,17.5,6.1
				c1.6,1.6,2.7,3.3,3.4,5c2.7,6.2-1.2,13.2-7.8,14.4l-12.2,2.2c-24.1,4.3-44.8,11-44.8,33.5c0,19.2,15.7,27,34.4,27
				c14.5,0,26.2-5.3,32.7-15.1v11.9h15.3v-66.9C739.1,704.9,725.4,691.6,700,691.6z M723.1,741v13.5c0,15.8-13.5,25.2-30.1,25.2
				c-12.3,0-19.8-4.9-19.8-13.7c0-4.4,1.5-7.7,4.1-10.3C686.8,746.2,715.1,746.4,723.1,741z"/>
			<path class="st1" d="M931.6,724.6v65.9h-16.8v-60.6c0-15.8-7.8-24.1-22.1-24.1c-13.9,0-24.8,10.8-24.8,25v59.7H851V663h16.8v42.3
				c6.5-9,17-13.7,29.3-13.7C920.5,691.6,931.6,706.6,931.6,724.6z"/>
			<path class="st1" d="M369.6,769.6c0,0-11.8,8.3-25.1,8.3c-25.2,0-29.5-26.3-29.5-35.7c0-5.2,1.7-35.5,30.2-35.5
				c13,0,24.4,6.3,24.4,6.3v-15.2c-9.1-5.2-18.6-6.5-25.2-6.5c-29.7,0-46.8,24.2-46.8,50.1c0,45,33.7,51.9,46,51.9
				c5.4,0,16.7-0.9,26-6.8V769.6z"/>
			<path class="st1" d="M830,769.6c0,0-11.8,8.3-25.1,8.3c-25.2,0-29.5-26.3-29.5-35.7c0-5.2,1.7-35.5,30.2-35.5
				c13,0,24.4,6.3,24.4,6.3v-15.2c-9.1-5.2-18.6-6.5-25.2-6.5c-29.7,0-46.8,24.2-46.8,50.1c0,45,33.7,51.9,46,51.9
				c5.4,0,16.7-0.9,26-6.8V769.6z"/>
			<path class="st1" d="M456.9,790.6h18.8L437,732.7l0,0c9.7-11.7,17.7-24.6,23.8-38.4l-18.3,0c-8.6,17-20.4,32.4-35.1,45V663h-16.8
				v127.6h16.8v-30.1c6.7-4.9,13-10.3,18.8-16.1L456.9,790.6z"/>
			<path class="st1" d="M132.1,777c-43.2,0-42.5-45.1-42.5-50.3c0-48,36.3-49.4,44-49.4c14.9,0,27.1,5.6,38.2,15.2v-19.6
				c-7.9-5.5-20.4-12.5-38.2-12.5c-22.9,0-61.7,14-61.7,66.3c0,5,0.7,22.7,10.1,39c10.4,18,27.8,27.6,50.1,27.6
				c17.9,0,28.7-5.9,39.7-13.9v-19.5C157.4,771,149.7,777,132.1,777z"/>
		</g>
	</g>
</g>
</svg>
