<svg version="1.1" id="Layer_1" xmlns="http://www.w3.org/2000/svg" xmlns:xlink="http://www.w3.org/1999/xlink" x="0px" y="0px"
	 width="100%" viewBox="0 0 800 800" enable-background="new 0 0 800 800" xml:space="preserve">
<path fill="#000000" opacity="1.000000" stroke="none" 
	d="
M480.096832,510.922119 
	C480.157013,520.494080 480.175903,520.541016 471.519653,524.024780 
	C459.226593,528.972229 446.552887,530.249573 433.921783,526.032898 
	C415.325073,519.824768 405.981567,503.596161 407.680298,481.749634 
	C409.041077,464.249725 422.702881,449.143341 440.113281,445.774475 
	C450.893646,443.688507 461.272858,445.168549 471.487030,448.848785 
	C475.394165,450.256561 477.587311,452.511932 477.221588,456.967896 
	C476.963898,460.107941 477.226868,463.289612 477.232544,466.452759 
	C477.234955,467.811981 477.175842,469.281403 475.605316,469.752716 
	C473.970245,470.243439 472.695709,469.493774 471.859802,468.028168 
	C471.612671,467.594910 471.359924,467.157349 471.179718,466.694519 
	C466.230804,453.984589 454.301697,450.891541 443.335754,452.667786 
	C430.831207,454.693298 423.946320,462.231262 422.150360,475.668274 
	C420.274902,489.700409 421.815247,503.036224 432.471741,513.627563 
	C439.368256,520.481873 454.730865,522.362183 463.425903,517.963196 
	C466.374603,516.471436 468.178864,514.426208 467.863800,510.914093 
	C467.745239,509.592834 467.845886,508.251984 467.846283,506.920044 
	C467.849335,496.364136 467.860077,496.328094 457.886017,493.339081 
	C456.207825,492.836212 455.171265,492.032898 455.275330,490.268494 
	C455.388092,488.357086 456.786285,487.829529 458.429230,487.827484 
	C467.252625,487.816528 476.076111,487.814056 484.899353,487.853821 
	C486.472595,487.860901 487.929474,488.272003 488.192627,490.191040 
	C488.363037,491.433228 488.129883,492.808960 486.818237,493.062592 
	C479.472443,494.483124 479.915283,499.999969 480.095734,505.444855 
	C480.150848,507.107788 480.096771,508.774323 480.096832,510.922119 
z"/>
<path fill="#000000" opacity="1.000000" stroke="none" 
	d="
M393.199280,358.789917 
	C403.481720,371.742584 413.538666,384.417450 423.452393,396.911835 
	C421.346527,399.495117 419.380310,399.008911 417.628662,399.011810 
	C402.309387,399.037415 386.989258,398.903656 371.671234,399.035767 
	C367.407227,399.072540 364.889038,397.627289 363.462311,393.464752 
	C360.550232,384.968567 357.334900,376.573608 354.107635,368.189606 
	C352.891571,365.030365 353.618744,363.096436 356.868866,362.053101 
	C365.897064,359.154877 374.931732,356.273987 383.922363,353.262360 
	C389.058929,351.541748 390.436676,355.944122 393.199280,358.789917 
z"/>
<path fill="#000000" opacity="1.000000" stroke="none" 
	d="
M414.981079,269.853912 
	C409.963531,276.741699 405.125763,283.307312 400.363617,289.927338 
	C398.659912,292.295776 396.859009,293.595825 393.650269,292.678894 
	C377.818817,288.154846 361.938721,283.800964 346.074066,279.393219 
	C344.781250,279.034027 343.503418,278.672699 342.664459,277.400909 
	C342.474640,275.085510 344.540710,274.486694 345.912781,273.479279 
	C358.657013,264.122162 371.490051,254.885376 384.186340,245.464111 
	C387.141846,243.270981 389.537109,242.930237 392.681396,245.174744 
	C399.316650,249.911194 406.182220,254.325851 412.970886,258.846161 
	C419.430481,263.147339 419.470642,263.278717 414.981079,269.853912 
z"/>
<path fill="#000000" opacity="1.000000" stroke="none" 
	d="
M696.766968,470.677429 
	C719.900696,472.846588 723.370667,497.326355 716.103821,512.144409 
	C709.120728,526.384033 694.487000,531.552734 676.591003,525.906372 
	C675.960876,531.745178 675.982544,537.446716 676.586548,543.114990 
	C676.838501,545.479065 679.321716,545.750916 681.203247,546.332642 
	C682.793396,546.824219 684.735291,547.029968 684.350769,549.361206 
	C684.026245,551.328491 682.269165,551.249268 680.783813,551.253723 
	C673.626038,551.275146 666.467957,551.264709 659.310181,551.231689 
	C657.804321,551.224731 656.137329,551.228699 655.821960,549.230408 
	C655.501587,547.200989 657.078857,546.600647 658.560791,546.356323 
	C663.286621,545.577087 663.970093,542.478271 663.932800,538.338074 
	C663.784241,521.859436 663.752869,505.377197 663.949951,488.899567 
	C663.999878,484.726868 663.161682,481.786713 658.799561,480.558075 
	C657.219238,480.112946 655.442383,479.330109 655.752319,477.214172 
	C656.012085,475.441010 657.773499,475.221222 659.182373,474.767548 
	C662.189514,473.799316 665.197205,472.832336 668.209595,471.880676 
	C674.929749,469.757629 675.525574,470.089630 676.886780,477.252228 
	C682.794250,473.018555 689.004700,470.026611 696.766968,470.677429 
M676.222534,491.728455 
	C676.231689,497.388641 676.169739,503.050049 676.267761,508.708710 
	C676.393311,515.960083 680.264771,520.070862 687.488281,520.818604 
	C699.004028,522.010681 705.797546,516.791443 707.171265,504.233124 
	C708.634399,490.857300 703.886780,481.010834 692.206055,479.648987 
	C683.592285,478.644653 676.406067,483.583710 676.222534,491.728455 
z"/>
<path fill="#000000" opacity="1.000000" stroke="none" 
	d="
M478.178894,327.576599 
	C479.150085,329.821228 477.912537,331.413818 477.366913,333.102264 
	C472.609680,347.823242 467.715698,362.500610 463.054688,377.251709 
	C461.890594,380.935760 459.953888,382.836029 455.992218,382.902649 
	C446.671661,383.059448 437.354004,383.397156 428.035736,383.680573 
	C425.348999,383.762299 423.921448,382.432709 423.910583,379.819336 
	C423.869659,369.996185 423.889069,360.172577 423.936890,350.349365 
	C423.948547,347.954193 425.130737,346.232361 427.415009,345.372131 
	C443.610565,339.273254 459.805878,333.173798 476.019073,327.122162 
	C476.561371,326.919769 477.292877,327.224182 478.178894,327.576599 
z"/>
<path fill="#000000" opacity="1.000000" stroke="none" 
	d="
M324.110352,323.791077 
	C320.388428,310.642639 318.487976,313.718231 329.804382,304.742096 
	C335.144623,300.506256 340.531311,296.327240 345.805725,292.010986 
	C348.406250,289.882874 350.479950,289.953278 352.488220,292.743347 
	C358.218933,300.705231 363.998474,308.632019 369.770325,316.564209 
	C370.943817,318.176910 371.419983,319.828094 370.223572,321.629547 
	C360.474884,336.308136 350.728119,350.988068 340.944946,365.643646 
	C340.617310,366.134491 339.909637,366.371643 338.388855,367.390503 
	C333.581909,352.678101 328.922882,338.418427 324.110352,323.791077 
z"/>
<path fill="#000000" opacity="1.000000" stroke="none" 
	d="
M427.768555,263.024109 
	C427.928619,259.432770 427.128632,256.261505 428.189636,253.247437 
	C430.517853,252.268478 431.768463,254.042236 433.139343,255.035202 
	C446.071747,264.402222 458.934143,273.865875 471.846222,283.261108 
	C474.190582,284.966919 475.616791,286.785309 474.670135,289.969818 
	C472.067200,298.726349 469.566040,307.515442 467.192291,316.336761 
	C466.032990,320.644928 463.889893,321.907074 459.530579,320.326843 
	C451.251221,317.325531 442.843292,314.674561 434.461395,311.962708 
	C431.412231,310.976196 429.862396,309.244507 429.732269,305.849365 
	C429.190979,291.730164 428.447388,277.618744 427.768555,263.024109 
z"/>
<path fill="#000000" opacity="1.000000" stroke="none" 
	d="
M209.437744,449.270020 
	C221.432831,442.748383 233.171951,444.090515 244.938568,448.788666 
	C248.053055,450.032166 249.650955,452.096375 249.445084,455.678223 
	C249.235397,459.326447 249.558319,463.002838 249.561523,466.666992 
	C249.562714,468.012817 249.371536,469.484619 247.677567,469.762909 
	C246.026901,470.034088 245.303253,468.832611 244.867828,467.496613 
	C243.828751,464.308533 242.534592,461.276154 240.359787,458.653076 
	C234.687820,451.812225 222.798691,449.894562 215.330765,454.667450 
	C207.755280,459.509003 207.921387,470.219574 216.010864,474.248901 
	C223.298859,477.879028 231.070435,480.524231 238.510025,483.867950 
	C246.276489,487.358551 252.420212,492.281281 253.425125,501.661865 
	C254.432861,511.068970 250.626694,519.270569 242.090515,523.675903 
	C229.221222,530.317627 216.110413,529.828064 203.057373,524.018127 
	C200.112885,522.707520 198.346008,520.673035 198.436951,517.082825 
	C198.529312,513.436707 197.910492,509.777802 197.854736,506.120636 
	C197.824661,504.147430 196.908401,501.436798 200.145996,500.917694 
	C202.918854,500.473053 203.294693,502.888428 203.991653,504.669495 
	C205.342453,508.121429 207.114105,511.296417 209.619049,514.037903 
	C216.111191,521.142761 226.777100,523.027405 235.286896,518.586914 
	C244.642624,513.705017 245.276535,502.927643 236.271027,497.436096 
	C232.182968,494.943207 227.550400,493.326813 223.119720,491.417511 
	C219.603485,489.902252 215.960297,488.674744 212.476318,487.092926 
	C205.294006,483.832001 199.827377,479.046844 198.794968,470.637543 
	C197.655029,461.352448 201.527893,454.501373 209.437744,449.270020 
z"/>
<path fill="#000000" opacity="1.000000" stroke="none" 
	d="
M120.794785,468.328308 
	C115.140129,455.017822 105.737816,450.794739 92.516243,452.667633 
	C79.409584,454.524231 71.660873,463.478119 70.425270,477.749725 
	C69.522270,488.179688 70.508636,498.413971 76.180901,507.639282 
	C82.288017,517.571838 91.484657,520.637939 102.681335,519.954468 
	C112.486786,519.355896 118.733696,514.421265 122.420097,505.633942 
	C122.992935,504.268463 123.753952,502.953094 124.610855,501.744202 
	C125.369026,500.674591 126.615143,500.674194 127.803757,500.929871 
	C129.310486,501.253937 129.451584,502.456635 129.338181,503.652985 
	C128.851486,508.786346 128.336594,513.917542 127.767204,519.042358 
	C127.539909,521.088196 126.154060,522.263306 124.336357,522.961182 
	C111.145485,528.025391 97.634880,530.379150 83.795006,526.265747 
	C59.858242,519.151367 48.726048,491.497803 60.147762,468.131439 
	C68.409912,451.228912 85.898750,442.232971 104.833206,445.058411 
	C110.443390,445.895569 115.958885,446.943146 121.248650,449.125610 
	C124.424561,450.435944 126.007523,452.489319 125.988136,455.927765 
	C125.969368,459.256470 126.178391,462.586151 126.180397,465.915436 
	C126.182854,469.989288 124.573753,471.221893 120.794785,468.328308 
z"/>
<path fill="#000000" opacity="1.000000" stroke="none" 
	d="
M654.630249,524.975952 
	C650.629333,525.727234 647.030823,526.413696 643.412415,526.970947 
	C635.955566,528.119446 635.951172,528.091064 635.493347,520.530273 
	C632.699585,522.365967 630.173706,524.370605 627.360535,525.816162 
	C613.068054,533.160645 599.925110,525.157471 599.875183,509.170837 
	C599.850159,501.177185 599.732544,493.180603 599.908325,485.190918 
	C599.988953,481.528168 599.122681,478.976868 595.105896,478.410736 
	C593.342224,478.162109 591.836243,477.587799 591.803040,475.409882 
	C591.764404,472.881073 593.708496,472.451813 595.502136,472.193207 
	C599.447937,471.624237 603.434509,471.341339 607.384155,470.795105 
	C611.366455,470.244385 612.241882,472.361816 612.222595,475.764069 
	C612.163086,486.255310 612.297546,496.747742 612.221191,507.238708 
	C612.185303,512.178162 612.683960,516.772888 618.246704,518.529480 
	C623.379150,520.150269 633.128845,516.956299 635.524109,513.004761 
	C636.002136,512.216187 636.156799,511.122467 636.155640,510.169769 
	C636.145203,501.677704 635.956238,493.184418 636.059570,484.694397 
	C636.103210,481.109222 634.845154,478.974976 631.223267,478.395996 
	C629.479187,478.117157 627.916504,477.517059 627.933594,475.354950 
	C627.953491,472.837372 629.974304,472.579193 631.755920,472.252167 
	C633.551025,471.922668 635.396362,471.877930 637.204163,471.605560 
	C650.137939,469.656769 648.154419,470.349915 648.276733,481.919312 
	C648.382385,491.910400 648.406677,501.904907 648.256714,511.894775 
	C648.196594,515.898804 648.916016,518.456421 653.670227,519.089294 
	C657.503235,519.599548 658.257019,522.052795 654.630249,524.975952 
z"/>
<path fill="#000000" opacity="1.000000" stroke="none" 
	d="
M333.586029,475.343506 
	C338.060608,479.771576 339.166077,485.096405 339.250580,490.704163 
	C339.363464,498.197449 339.326416,505.693787 339.280884,513.188354 
	C339.257111,517.101685 340.659821,519.678772 344.962433,519.738281 
	C346.895660,519.765015 348.159363,520.649109 348.661621,522.458069 
	C349.256775,524.601624 347.511169,525.387024 346.144104,526.245483 
	C339.607086,530.350586 334.453583,528.749939 328.562531,520.615906 
	C323.042938,524.968628 317.174530,528.527649 309.719757,528.351929 
	C301.232330,528.151855 295.267822,523.615479 293.926605,515.951599 
	C292.577637,508.243439 296.267120,502.768677 304.867340,499.979248 
	C310.880310,498.028931 316.909393,496.104309 323.007874,494.450500 
	C326.720276,493.443817 327.640411,491.426666 326.914734,487.823853 
	C325.617523,481.383392 322.253540,477.746918 316.646545,477.282776 
	C310.948578,476.811096 307.911926,479.398529 308.364349,485.036896 
	C308.658722,488.705750 307.685760,490.191650 303.904053,490.336700 
	C300.099792,490.482666 297.271423,489.933258 296.799866,485.464600 
	C296.311859,480.840332 299.117706,475.820099 304.257385,473.549133 
	C314.125214,469.188934 323.918091,469.062256 333.586029,475.343506 
M307.496552,516.818481 
	C312.580292,520.571472 317.268555,520.506836 323.144409,516.805237 
	C329.925812,512.533142 325.841003,506.103943 327.534790,500.615143 
	C326.008575,500.498962 325.475861,500.312958 325.043427,500.448059 
	C320.913666,501.738190 316.777283,503.014526 312.688507,504.427124 
	C306.020813,506.730682 304.865112,509.215149 307.496552,516.818481 
z"/>
<path fill="#000000" opacity="1.000000" stroke="none" 
	d="
M140.746078,481.835907 
	C146.851151,474.475647 154.399734,470.838928 163.587692,470.665161 
	C179.841354,470.357697 190.198151,479.191010 192.665573,495.415588 
	C194.707703,508.843719 185.529816,522.873108 172.005692,526.996216 
	C159.770660,530.726379 146.939590,526.972717 140.091995,517.659973 
	C132.753586,507.679688 132.924683,493.433197 140.746078,481.835907 
M164.731705,478.593292 
	C156.446671,477.701935 151.050476,480.363251 148.725571,487.199799 
	C145.744644,495.965424 146.386826,504.668030 151.219894,512.662903 
	C156.767212,521.839233 170.244888,523.318176 176.413971,515.672424 
	C184.164368,506.066772 180.868500,481.778046 164.731705,478.593292 
z"/>
<path fill="#000000" opacity="1.000000" stroke="none" 
	d="
M587.827148,509.495605 
	C580.956482,524.844788 565.074341,532.060486 550.087891,526.942322 
	C537.781555,522.739502 530.087158,509.987915 531.981995,496.936371 
	C534.195618,481.689178 545.103271,471.289215 559.508545,470.690979 
	C581.684998,469.770020 594.336243,486.855011 587.827148,509.495605 
M576.936646,495.635864 
	C575.738647,490.529938 573.897827,485.783142 569.695129,482.297760 
	C561.697021,475.664795 550.121033,477.276367 546.387085,486.044373 
	C542.187073,495.906891 543.153992,505.709778 549.646851,514.380676 
	C553.379517,519.365479 558.917969,521.337891 565.161865,520.367126 
	C571.753296,519.342285 575.084351,514.883972 576.720215,508.771576 
	C577.815857,504.677765 578.007324,500.584961 576.936646,495.635864 
z"/>
<path fill="#000000" opacity="1.000000" stroke="none" 
	d="
M353.553223,480.458679 
	C349.629181,478.117767 350.187439,476.162506 353.734314,474.851166 
	C357.625092,473.412720 361.628876,472.269531 365.611542,471.092926 
	C369.189850,470.035736 371.107849,471.373596 370.990875,475.197754 
	C370.910095,477.838470 370.727112,480.476044 370.541534,484.042572 
	C372.781799,480.391541 374.716431,477.423157 377.276367,474.956726 
	C379.360352,472.948914 381.678955,471.391174 384.565399,470.891571 
	C387.105652,470.451843 389.920624,470.395264 391.472504,472.595367 
	C393.278473,475.155762 392.708344,478.434357 391.921356,481.262360 
	C391.334198,483.372101 388.939484,483.051666 387.159058,483.001617 
	C383.362701,482.894897 379.921326,483.761993 376.873718,486.095551 
	C373.133331,488.959625 370.730255,492.218353 371.172272,497.439941 
	C371.661591,503.219940 371.441254,509.079041 371.228790,514.892700 
	C371.090393,518.680786 372.390778,520.959412 376.251373,521.538452 
	C378.474396,521.871887 380.150970,522.886292 379.755035,525.433777 
	C379.381775,527.835327 377.303833,527.888184 375.468964,527.899597 
	C368.650879,527.941895 361.831848,527.947327 355.014282,527.868774 
	C353.217194,527.848083 351.140198,527.843994 350.733490,525.396057 
	C350.293213,522.746155 352.055786,522.015015 354.214172,521.520203 
	C357.376953,520.795166 358.962006,518.775452 358.944000,515.432678 
	C358.891968,505.786346 358.802429,496.137451 358.974579,486.493927 
	C359.041595,482.741241 356.464966,481.816742 353.553223,480.458679 
z"/>
<path fill="#000000" opacity="1.000000" stroke="none" 
	d="
M512.511597,481.129944 
	C515.656677,476.838745 518.572144,472.758667 523.726196,471.207123 
	C530.257141,469.241119 533.526672,471.888824 533.297546,478.632385 
	C533.194519,481.663666 531.870911,482.786407 529.084106,482.888763 
	C526.927673,482.967926 524.727722,482.950165 522.631287,483.382935 
	C514.760254,485.007660 509.841370,491.341125 509.928864,499.338104 
	C509.977966,503.827209 510.127960,508.338165 509.772247,512.802612 
	C509.374207,517.798706 510.991394,520.870239 516.233215,521.489380 
	C517.051575,521.586121 517.876160,521.791138 518.649048,522.077576 
	C520.114380,522.620605 520.575012,523.829163 520.459473,525.277832 
	C520.328796,526.916382 519.242371,527.585632 517.746460,527.599243 
	C510.101013,527.668823 502.454987,527.743652 494.809631,527.711304 
	C493.248138,527.704712 491.892944,527.057373 491.744873,525.111755 
	C491.611115,523.353516 492.329437,522.225830 494.008270,521.744873 
	C497.468994,520.753357 497.834015,518.116150 497.805725,515.068359 
	C497.720825,505.920929 497.660370,496.770966 497.799896,487.625153 
	C497.847626,484.495056 496.996094,482.382812 494.210480,480.627228 
	C490.622070,478.365662 490.894897,476.287140 494.764832,474.787109 
	C498.477783,473.347961 502.282593,472.111572 506.114563,471.023987 
	C509.531281,470.054321 511.177582,471.499756 510.885529,475.122253 
	C510.665894,477.847015 510.584900,480.582916 510.380096,484.502167 
	C511.474731,482.758911 511.904968,482.073700 512.511597,481.129944 
z"/>
<path fill="#000000" opacity="1.000000" stroke="none" 
	d="
M262.922394,496.002319 
	C262.922089,491.338898 262.852478,487.173126 262.946106,483.011017 
	C263.014435,479.973785 261.961029,478.250977 258.642975,478.363525 
	C257.190277,478.412781 255.442108,478.524536 254.951630,476.605011 
	C254.459595,474.679413 255.626450,473.434448 257.146240,472.537628 
	C261.651947,469.878815 265.310760,466.249207 268.829590,462.454895 
	C270.094330,461.091187 271.383759,459.551056 273.472504,460.228760 
	C275.797211,460.983002 275.465607,463.210724 275.244507,464.907928 
	C274.623016,469.678802 276.762604,471.242615 281.211945,470.742371 
	C282.857452,470.557343 284.540863,470.734131 286.205383,470.687988 
	C288.869751,470.614136 290.145172,471.757935 290.196014,474.540039 
	C290.252747,477.646515 288.708893,478.746124 285.885040,478.580872 
	C282.562103,478.386475 279.257721,478.391449 275.542145,479.173950 
	C275.542145,490.610413 275.192841,502.055969 275.705841,513.462708 
	C275.925720,518.351807 280.482239,520.388489 286.510315,519.436646 
	C288.609222,519.105164 291.000732,517.912842 291.913086,520.977661 
	C292.745483,523.773926 290.255859,524.752625 288.494934,525.799133 
	C276.034332,533.204773 263.162384,525.976807 262.954102,511.492676 
	C262.882233,506.496521 262.929993,501.498657 262.922394,496.002319 
z"/>
<path fill="#000000" opacity="1.000000" stroke="none" 
	d="
M743.496338,479.118225 
	C743.240723,481.211426 744.986145,483.579285 742.133179,484.912018 
	C740.591064,483.024933 739.907349,473.624664 741.177551,471.975189 
	C742.539734,470.206024 743.881470,470.904968 744.673218,472.413269 
	C745.796082,474.552338 746.591675,476.863251 747.732971,479.593079 
	C748.607056,477.098633 749.277466,475.078339 750.026062,473.087402 
	C750.519531,471.774811 751.325317,470.712433 752.935791,470.903534 
	C754.624695,471.103943 755.159729,472.471924 755.023804,473.801575 
	C754.640259,477.553802 756.615723,481.812042 753.343262,485.273804 
	C750.265259,483.425171 752.281799,480.929260 751.468750,479.051270 
	C751.276611,479.234833 751.022949,479.385132 750.901367,479.607635 
	C749.861511,481.510498 750.635681,485.034607 747.615845,485.058929 
	C744.602600,485.083252 745.274109,481.565857 744.228699,479.661621 
	C744.078308,479.387665 743.815247,479.175598 743.496338,479.118225 
z"/>
<path fill="#000000" opacity="1.000000" stroke="none" 
	d="
M738.210571,470.584290 
	C738.654663,470.816711 738.891602,471.019348 738.882812,471.030609 
	C735.731262,475.078705 736.477600,480.447906 734.605713,485.697998 
	C729.494202,481.813446 735.595215,473.779266 727.239807,472.433533 
	C731.078064,469.139801 734.710388,471.201508 738.210571,470.584290 
z"/>
</svg>