<?xml version="1.0" encoding="UTF-8" standalone="no"?>
<!-- Created with Inkscape (http://www.inkscape.org/) -->

<svg
   xmlns:dc="http://purl.org/dc/elements/1.1/"
   xmlns:cc="http://creativecommons.org/ns#"
   xmlns:rdf="http://www.w3.org/1999/02/22-rdf-syntax-ns#"
   xmlns:svg="http://www.w3.org/2000/svg"
   xmlns="http://www.w3.org/2000/svg"
   version="1.1"
   width="447.52713"
   height="53.540482"
   id="svg3620">
  <defs
     id="defs3622" />
  <g
     transform="translate(-153.37929,-482.7348)"
     id="layer1">
    <path
       d="m 177.76312,507.70122 c 1.0583,0.2864 2.41348,0.57979 3.95028,0.57979 7.75735,0 13.53782,-3.56608 13.53782,-10.81698 0,-6.3917 -5.78047,-9.39196 -14.34814,-9.39196 -2.61256,0 -5.67219,0.35626 -7.74338,0.85572 -0.0978,2.69988 -0.37372,7.1112 -0.37372,24.18367 0,16.47521 0.27592,17.12137 1.27834,17.83738 0.81031,0.56582 3.51718,0.91858 7.01689,0.91858 l 0.27942,0.22005 0,2.04674 -0.27942,0.22004 c -4.59294,-0.13622 -8.92043,-0.34928 -13.24443,-0.34928 -4.33797,0 -8.67594,0.21306 -13.18157,0.34928 l -0.27592,-0.22004 0,-2.04674 0.27592,-0.22005 c 3.42986,0 6.13324,-0.35276 6.95054,-0.91858 0.98844,-0.71601 1.26087,-1.36217 1.26087,-17.83738 l 0,-7.19503 c 0,-16.49267 -0.27243,-17.12835 -1.26087,-17.84436 -0.8173,-0.56582 -3.52068,-0.92208 -6.95054,-0.92208 l -0.27592,-0.19908 0,-2.07119 0.27592,-0.20957 c 4.50563,0.14321 8.8436,0.34578 13.18157,0.34578 5.41373,0 10.81,-0.34578 15.86747,-0.34578 12.99995,0 21.84005,1.99086 21.84005,11.66223 0,9.09507 -9.20684,14.92444 -21.12054,14.92444 -2.89548,0 -4.95968,-0.29339 -6.2974,-0.48898 l -1.18054,-2.43793 0.8173,-0.62869 z"
       id="path240"
       style="fill:#25477f;fill-opacity:1;fill-rule:nonzero;stroke:none" />
    <path
       d="m 245.61745,484.88076 0.26894,-0.21305 c 4.51959,0.1432 8.84709,0.34927 13.19204,0.34927 4.3275,0 8.65499,-0.20607 13.17109,-0.34927 l 0.26894,0.21305 0,2.07119 -0.26894,0.19909 c -3.43335,0 -6.14371,0.35276 -6.95752,0.92208 -0.98146,0.71601 -1.25389,1.34819 -1.25389,17.84087 l 0,7.19852 c 0,16.47171 0.27243,17.12136 1.25389,17.83737 0.81381,0.56582 3.52417,0.91859 6.95752,0.91859 l 0.26894,0.21306 0,2.06071 -0.26894,0.21305 c -4.5161,-0.1397 -8.84359,-0.34927 -13.17109,-0.34927 -4.34495,0 -8.67245,0.20957 -13.19204,0.34927 l -0.26894,-0.21305 0,-2.06071 0.26894,-0.21306 c 3.43684,0 6.14371,-0.35277 6.95053,-0.91859 0.99194,-0.71601 1.25389,-1.36566 1.25389,-17.83737 l 0,-7.19852 c 0,-16.49268 -0.26195,-17.12486 -1.25389,-17.84087 -0.80682,-0.56932 -3.51369,-0.92208 -6.95053,-0.92208 l -0.26894,-0.19909 0,-2.07119 z"
       id="path244"
       style="fill:#25477f;fill-opacity:1;fill-rule:nonzero;stroke:none" />
    <path
       d="m 313.45956,484.88076 0.26894,-0.21305 c 4.51261,0.1432 6.68508,0.34927 10.65283,0.34927 2.80466,0 5.96209,-0.20607 7.60018,-0.34927 8.39303,14.49483 19.94349,32.27632 23.72961,38.2454 8.2184,-12.71005 16.15737,-25.38517 24.01602,-38.2454 2.42046,0.1432 5.68966,0.34927 8.29873,0.34927 2.60907,0 6.30437,-0.20607 8.8366,-0.34927 l 0.26545,0.21305 0,2.0677 -0.26545,0.20258 c -3.43335,0 -6.13323,0.35276 -6.94354,0.92208 -1.02337,0.71601 -1.27136,1.34819 -1.27136,17.84087 l 0,7.19852 c 0,16.47171 0.24799,17.12136 1.27136,17.83737 0.81031,0.56582 3.51019,0.91859 6.94354,0.91859 l 0.26545,0.21306 0,2.06071 -0.26545,0.21305 c -4.50213,-0.1397 -8.8366,-0.34927 -13.18505,-0.34927 -4.31702,0 -8.65499,0.20957 -13.15712,0.34927 l -0.29339,-0.21305 0,-2.06071 0.29339,-0.21306 c 3.42637,0 6.14371,-0.35277 6.92958,-0.91859 0.99543,-0.71601 1.28881,-1.36566 1.28881,-17.83737 l 0,-17.50208 -0.20257,0 c -8.66896,13.16411 -22.825,34.83999 -24.79839,39.66345 l -1.91053,0 c -2.43792,-5.68966 -20.30673,-32.41254 -24.81934,-39.66345 l -0.17464,0 0,17.50208 c 0,16.47171 0.25847,17.12136 1.25739,17.83737 0.80332,0.56582 3.51368,0.91859 6.68858,0.91859 l 0.26894,0.21306 0,2.06071 -0.26894,0.21305 c -3.35652,-0.1397 -6.77939,-0.34927 -10.11495,-0.34927 -3.61498,0 -7.32426,0.20957 -10.93574,0.34927 l -0.26894,-0.21305 0,-2.06071 0.26894,-0.21306 c 3.44034,0 6.15419,-0.35277 6.96101,-0.91859 0.98495,-0.71601 1.26088,-1.36566 1.26088,-17.83737 l 0,-7.19852 c 0,-16.49268 -0.27593,-17.12486 -1.26088,-17.84087 -0.80682,-0.56932 -3.52067,-0.92208 -6.96101,-0.92208 l -0.26894,-0.19909 0,-2.07119 z"
       id="path248"
       style="fill:#25477f;fill-opacity:1;fill-rule:nonzero;stroke:none" />
    <path
       d="m 491.9367,527.67161 c -0.73697,1.35168 -1.37963,2.70337 -2.0188,4.05506 -5.83985,2.21089 -12.61924,3.54861 -20.84112,3.54861 -17.79896,0 -34.86444,-8.52226 -34.86444,-25.28737 0,-15.94432 13.66356,-26.25136 36.20215,-26.25136 7.50239,0 17.09343,1.57172 20.95639,2.63701 l 0.56582,0.50295 c -1.26786,2.97581 -1.79527,8.24983 -1.7324,10.02763 l -0.2864,0.20607 -2.87102,0 -0.26895,-0.20607 c 0,-1.7778 -0.27243,-3.56258 -0.53089,-5.34038 -2.16899,-2.06421 -8.94838,-4.41482 -16.99912,-4.41482 -16.8629,0 -24.37577,10.52709 -24.37577,20.33468 0,12.94755 9.49674,23.53402 28.91283,23.53402 5.31244,0 12.00451,-1.14212 17.04802,-3.82803 l 1.1037,0.482 z"
       id="path252"
       style="fill:#25477f;fill-opacity:1;fill-rule:nonzero;stroke:none" />
    <path
       d="m 565.62179,487.15069 c -12.73101,0 -22.26965,7.60018 -22.26965,19.4091 0,15.43438 10.41881,25.30833 24.04396,25.30833 14.74281,0 21.87147,-9.66438 21.87147,-21.17293 0,-18.28445 -13.81724,-23.5445 -23.64578,-23.5445 m 1.52283,-3.41589 c 18.21808,0 32.76181,7.76434 32.76181,24.54691 0,14.91396 -14.45292,26.99182 -35.03558,26.99182 -24.62375,0 -32.18202,-14.14206 -32.18202,-26.14309 0,-15.93383 15.06415,-25.39564 34.45579,-25.39564"
       id="path256"
       style="fill:#25477f;fill-opacity:1;fill-rule:nonzero;stroke:none" />
  </g>
</svg>
