<?xml version="1.0" encoding="UTF-8" standalone="no"?>
<!-- Created with Inkscape (http://www.inkscape.org/) -->

<svg
   version="1.1"
   id="svg2"
   xml:space="preserve"
   width="470.60001"
   height="272.64001"
   viewBox="0 0 470.60001 272.64001"
   sodipodi:docname="03-sticker-mule-logo-white-stacked.eps"
   xmlns:inkscape="http://www.inkscape.org/namespaces/inkscape"
   xmlns:sodipodi="http://sodipodi.sourceforge.net/DTD/sodipodi-0.dtd"
   xmlns="http://www.w3.org/2000/svg"
   xmlns:svg="http://www.w3.org/2000/svg"><defs
     id="defs6" /><sodipodi:namedview
     id="namedview4"
     pagecolor="#ffffff"
     bordercolor="#666666"
     borderopacity="1.0"
     inkscape:pageshadow="2"
     inkscape:pageopacity="0.0"
     inkscape:pagecheckerboard="0" /><g
     id="g8"
     inkscape:groupmode="layer"
     inkscape:label="ink_ext_XXXXXX"
     transform="matrix(1.3333333,0,0,-1.3333333,0,272.64)"><g
       id="g10"
       transform="scale(0.1)"><path
         d="M 161.277,0 C 101.703,0 47.9375,6.55078 0,54.4883 L 61.7617,116.219 C 92.9922,84.9883 133.68,80.6289 162.719,80.6289 c 32.691,0 66.84,10.9024 66.84,39.2301 0,18.879 -10.172,31.961 -39.957,34.879 l -59.575,5.801 c -68.2653,6.539 -110.3981,36.313 -110.3981,106.063 0,78.449 69.0156,120.589 145.9921,120.589 58.844,0 108.262,-10.179 144.567,-44.312 l -58.11,-58.84 c -21.789,19.59 -55.211,25.422 -87.898,25.422 -37.77,0 -53.75,-17.441 -53.75,-36.313 0,-13.82 5.793,-29.796 39.215,-32.707 l 59.57,-5.82 C 284.039,227.379 321.824,187.41 321.824,123.512 321.824,39.9609 250.633,0 161.277,0"
         style="fill:#ffffff;fill-opacity:1;fill-rule:nonzero;stroke:none"
         id="path12" /><path
         d="m 486.672,4.35938 c -76.996,0 -109.688,54.48042 -109.688,108.24262 V 300.02 h -39.941 v 71.902 h 39.941 v 111.879 h 94.438 V 371.922 h 66.82 V 300.02 h -66.82 V 118.398 c 0,-21.7769 10.168,-34.1363 32.687,-34.1363 h 34.133 V 4.35938 h -51.57"
         style="fill:#ffffff;fill-opacity:1;fill-rule:nonzero;stroke:none"
         id="path14" /><path
         d="M 581.664,4.35938 V 382.82 h 94.438 V 4.35938 Z M 580.203,447.488 v 76.981 h 96.629 v -76.981 h -96.629"
         style="fill:#ffffff;fill-opacity:1;fill-rule:nonzero;stroke:none"
         id="path16" /><path
         d="m 889.512,0 c -75.551,0 -169.258,40.6914 -169.258,193.961 0,153.269 93.707,193.23 169.258,193.23 52.289,0 91.515,-15.992 124.938,-50.863 L 950.527,272.41 c -19.617,21.051 -36.308,29.781 -61.015,29.781 -22.535,0 -39.961,-7.98 -53.766,-24.691 -14.519,-18.172 -21.058,-43.59 -21.058,-83.539 0,-39.973 6.539,-66.109 21.058,-84.281 13.805,-16.6995 31.231,-24.6917 53.766,-24.6917 24.707,0 41.398,8.7226 61.015,29.7927 L 1014.45,51.5703 C 981.027,16.7109 941.801,0 889.512,0"
         style="fill:#ffffff;fill-opacity:1;fill-rule:nonzero;stroke:none"
         id="path18" /><path
         d="M 1274.97,4.35938 1182,161.988 1142.06,116.949 V 4.35938 h -94.44 V 521.559 h 94.44 V 228.102 l 125.66,154.718 h 114.05 L 1246.65,230.27 1391.94,4.35938 h -116.97"
         style="fill:#ffffff;fill-opacity:1;fill-rule:nonzero;stroke:none"
         id="path20" /><path
         d="m 1605.9,269.5 c -10.16,22.52 -31.22,39.238 -63.2,39.238 -31.97,0 -53.03,-16.718 -63.2,-39.238 -5.81,-13.801 -7.98,-23.98 -8.71,-40.672 h 143.83 c -0.73,16.692 -2.9,26.871 -8.72,40.672 z M 1470.79,164.16 c 0,-48.672 29.77,-84.2381 82.82,-84.2381 41.38,0 61.73,11.6094 85.71,35.5661 L 1696.7,59.5508 C 1658.22,21.0703 1621.16,0 1552.88,0 c -89.36,0 -175.07,40.6914 -175.07,193.961 0,123.48 66.83,193.23 164.89,193.23 105.33,0 164.9,-77 164.9,-180.882 V 164.16 h -236.81"
         style="fill:#ffffff;fill-opacity:1;fill-rule:nonzero;stroke:none"
         id="path22" /><path
         d="m 1958.03,279.672 c -14.52,14.539 -26.86,22.519 -50.11,22.519 -29.07,0 -61.05,-21.8 -61.05,-69.742 V 4.35938 h -94.42 V 382.82 h 92.25 V 346.5 c 18.17,21.801 54.51,40.691 95.16,40.691 37.07,0 63.21,-9.453 89.36,-35.613 l -71.19,-71.906"
         style="fill:#ffffff;fill-opacity:1;fill-rule:nonzero;stroke:none"
         id="path24" /><path
         d="m 2453.63,387.191 c -47.22,0 -81.36,-14.543 -113.32,-47.961 -23.98,32.692 -58.11,47.961 -100.23,47.961 -34.88,0 -69.74,-13.812 -94.45,-39.23 v 34.859 h -92.24 V 4.35938 h 94.42 V 233.18 c 0,51.59 33.41,69.011 63.2,69.011 29.79,0 62.48,-17.421 62.48,-69.011 V 4.35938 h 94.43 V 235.352 c 0,49.418 34.14,66.839 63.18,66.839 29.8,0 62.49,-17.421 62.49,-69.011 V 4.35938 h 94.44 V 246.25 c 0,41.422 -10.89,77.012 -41.42,107.52 -21.06,21.05 -55.21,33.421 -92.98,33.421"
         style="fill:#ffffff;fill-opacity:1;fill-rule:nonzero;stroke:none"
         id="path26" /><path
         d="m 2864.07,153.988 c 0,-51.558 -33.42,-68.9997 -63.21,-68.9997 -29.77,0 -62.46,17.4417 -62.46,68.9997 V 382.82 h -94.43 V 140.91 c 0,-41.3787 7.99,-76.9803 38.49,-107.4881 C 2703.52,12.3398 2734.05,0 2771.82,0 c 34.87,0 69.73,13.0703 94.42,39.2305 V 4.35938 h 92.26 V 382.82 h -94.43 V 153.988"
         style="fill:#ffffff;fill-opacity:1;fill-rule:nonzero;stroke:none"
         id="path28" /><path
         d="m 3113.06,118.398 v 403.161 h -94.44 V 112.602 c 0,-53.7622 32.71,-108.24262 110.42,-108.24262 h 53.76 V 84.2617 h -36.32 c -23.97,0 -33.42,11.6172 -33.42,34.1363"
         style="fill:#ffffff;fill-opacity:1;fill-rule:nonzero;stroke:none"
         id="path30" /><path
         d="m 3292.69,228.828 c 0.71,16.692 2.89,26.871 8.69,40.672 10.17,22.52 31.25,39.238 63.21,39.238 31.97,0 53.02,-16.718 63.21,-39.238 5.8,-13.801 7.98,-23.98 8.71,-40.672 z m 236.79,-22.519 c 0,103.882 -59.55,180.882 -164.89,180.882 -98.07,0 -164.89,-69.75 -164.89,-193.23 C 3199.7,40.6914 3285.42,0 3374.78,0 c 68.27,0 105.32,21.0703 143.8,59.5508 l -57.36,55.9372 c -23.98,-23.9567 -44.33,-35.5661 -85.73,-35.5661 -53.03,0 -82.8,35.5661 -82.8,84.2381 h 236.79 v 42.149"
         style="fill:#ffffff;fill-opacity:1;fill-rule:nonzero;stroke:none"
         id="path32" /><path
         d="m 1940.14,632.199 c -13.29,-6.398 -31.46,-4.969 -50.25,-5.527 -16.18,-0.434 -38.83,-0.781 -48.24,7.547 -5.09,4.5 -6.58,14.32 -6.91,20.011 -0.4,6.809 1.32,15.141 2.75,22.758 1.71,9 3.51,20.512 0,25.481 -4.05,5.73 -18.51,3.32 -26.18,7.59 -8.16,4.519 -10.44,15.41 -13.05,27.55 -0.85,3.84 -3.1,7.321 -3.51,10.352 -2.26,18.598 3.99,43.57 8.26,62.699 4.57,20.211 10.47,39.16 13.81,57.91 5.06,28.321 6.76,60.309 4.83,89.571 -0.99,15.238 -3.04,27.218 -0.68,39.968 2.2,11.911 7.17,21.831 9.63,33.731 0.76,3.8 0.18,8.29 0.7,12.44 0.49,3.63 2.59,6.63 2.78,9.61 0.4,7.99 -2.15,17.64 -2.78,27.58 -1.68,26.57 0.35,64.05 2.09,86.84 0.58,7.9 4.29,16.96 -1.4,20.64 -27.61,0.42 -52.81,-4.97 -78.56,-8.25 -69.28,-8.86 -156.45,-10.01 -223.29,3.44 -6.32,1.28 -12.64,1.42 -18.57,2.77 -47.41,10.89 -91.01,31.27 -124.74,57.88 -5.2,4.11 -11.36,8.57 -17.2,13.08 -5.73,4.44 -11.85,10.59 -17.24,13.08 -27.01,12.53 -62.77,-1.9 -73.72,-19.28 -4.38,-6.94 -7.5,-15.89 -11.72,-24.11 -4.03,-7.88 -7.55,-16.21 -11.02,-24.15 -17.81,-40.73 -37.9,-79.62 -55.81,-120.57 -10.34,-23.64 -21.9,-49.96 -29.65,-76.48 -16.41,-56.321 -1.1,-131.731 11.74,-184.68 1.15,-4.852 3.75,-9.692 5.52,-15.149 4.05,-12.82 12.73,-29.832 22.73,-38.621 5.22,-4.551 14.09,-7.301 19.98,-12.41 7.4,-6.32 12.88,-18.91 18.6,-29.609 2.39,-4.469 5.71,-9.52 8.94,-15.141 6.87,-11.898 9.21,-22.57 -4.13,-29.629 -10.03,-5.332 -25.23,-6.699 -39.27,-7.57 -6.42,-1.629 -4.38,-10.25 -8.26,-14.473 -2.19,-2.406 -11.65,-6.199 -16.54,-7.598 -18.5,-5.351 -49.71,-5.011 -64.11,0 -7.2,2.54 -15.39,8.051 -17.21,13.782 -3.57,11.258 5.3,25.519 -2.76,34.476 -3.51,3.852 -11.18,3.16 -17.94,6.16 -9.59,4.274 -18.8,13.262 -23.42,24.852 -11.01,27.75 -4.17,71.34 -5.49,105.41 -0.38,9.942 -1.71,20.61 -2.05,31.719 -0.67,20.191 -5.42,40 -7.58,59.941 -1.09,9.711 -4.29,18 -6.2,26.852 -3.17,14.258 -5.56,29.656 -9.66,44.117 -4.55,15.871 -4.67,31.341 0.69,44.771 1.49,3.78 5.43,7.26 7.57,12.44 3.19,7.8 4.32,16.93 4.12,24.11 -2.33,4.05 -11.99,0.87 -14.47,4.79 -5.77,43.56 -12.3,87.42 -15.84,132.99 -1.15,15.24 -1.22,31.13 -2.78,46.87 -2.99,31.15 -0.49,62.85 -3.41,93.02 -1.45,14.7 -5.04,28.52 -6.89,42.74 -5.264,39.98 -16.416,91.28 -8.28,132.98 5.219,26.77 14.83,48.44 30.33,68.21 10.78,13.81 22.41,27.02 35.11,39.31 12.18,11.71 26.23,23.34 40.69,33.75 9.32,6.71 19.18,14.53 29.63,19.29 23.1,10.57 53.16,19.95 84.75,21.38 31.74,1.37 67.69,1.56 99.23,-4.16 30.1,-5.44 60.01,-10.71 89.58,-16.53 28.95,-5.66 57.33,-13.54 84.75,-20.66 3.53,-0.93 6.58,-3.11 10.34,-4.13 8.73,-2.39 18.62,-2.91 28.26,-5.51 25.52,-6.96 59.14,-10.36 90.28,-10.36 33.85,0 64.38,0.93 92.34,7.6 4.14,0.97 7.31,3.14 11.69,4.8 4.43,1.7 9.71,1.37 13.79,2.78 2.78,0.96 5.75,3.98 8.96,5.5 16.12,7.66 29.74,15.43 44.09,25.48 11.35,7.98 20.68,14.8 35.81,20.68 6.71,2.62 13.48,6.21 20,8.27 14.29,4.53 29.76,8.81 40.69,15.85 17.14,11.02 29.8,26.81 44.07,39.27 14.91,13.02 29.88,25.47 45.5,37.91 31.64,25.22 63.8,48.29 93.68,72.35 15.13,12.18 31.84,23.6 49.64,33.76 34.75,19.85 69.94,43.2 119.87,46.87 19.54,1.43 40.17,2.02 59.99,-0.69 5.44,-0.76 12.92,-3.8 17.89,-2.74 5.48,1.15 9.47,9.44 13.08,15.82 7.45,13.2 12.73,21.97 19.31,37.92 4.04,9.85 2.37,19.65 12.4,19.29 10.25,-0.39 8.51,-26.6 8.96,-36.54 0.56,-12.02 -1.48,-28.17 0.7,-36.49 1.46,-5.8 9.14,-14.32 17.22,-14.49 5.51,-0.09 9.24,4.47 14.46,7.59 5.39,3.15 10.39,5.02 13.77,7.57 8.19,6.13 17.95,16.32 26.19,24.81 6.81,7.02 17.5,23.45 28.99,22.04 19.57,-2.35 0.12,-31.22 -4.19,-40.63 -10.24,-22.58 -20.1,-39.42 -31.65,-60.66 -4.8,-8.76 -15.84,-20.57 -15.91,-29.65 0,-6.38 5.5,-10.62 8.3,-17.22 1.33,-3.14 2.11,-6.52 3.48,-9.62 6.7,-15.6 11.83,-37.52 17.22,-55.82 4.52,-15.4 8.21,-31.67 13.77,-46.87 5.44,-14.84 13.28,-28.8 19.31,-43.39 1.57,-3.82 1.88,-8.51 3.45,-12.42 12.6,-32.19 24.76,-68.9 39.89,-99.93 6.2,-12.57 14.6,-28.25 14.54,-46.87 -0.13,-20.49 -10.78,-30.29 -20.04,-45.45 -4.81,-8.02 -11.95,-20.23 -19.26,-22.76 -5.41,-1.85 -11.7,0.11 -17.2,-0.65 -7.75,-1.09 -13.12,-6.1 -20.02,-6.91 -18.74,-2.16 -35.52,12.43 -40.67,26.19 -1.71,4.64 -0.93,10.98 -2.02,16.54 -4.47,22.35 -15.31,33.16 -31,47.54 -10.01,9.13 -17.69,16.17 -30.34,22.75 -17.58,9.13 -37.2,14.77 -55.82,24.82 -6.86,3.66 -15.5,7.33 -21.38,6.17 -9.97,-1.96 -19.91,-18.12 -27.53,-28.26 -48.66,-64.09 -91.63,-129.96 -139.24,-192.95 -31.44,-41.63 -65.04,-83.93 -90.26,-131.59 -6.34,-11.99 -10.11,-25.98 -15.16,-39.98 -4.91,-13.67 -7.27,-28.84 -12.41,-43.4 -18.31,-52.42 -24.01,-116.19 -40.61,-170.9 -1.77,-5.74 -2.42,-12.34 -4.16,-18.591 -7.64,-27.93 -15.3,-59.937 -24.1,-89.59 -6.59,-22.097 -8.58,-51.929 -9.69,-81.328 -1.01,-27.223 -2.32,-66.031 7.61,-83.332 5.23,-9.211 23.91,-12.551 31.03,-22.078 4.87,-6.602 8.16,-19.563 13.07,-28.25 3.39,-6.031 13.14,-18.871 12.39,-28.242 -0.55,-7.008 -6.5,-11.949 -11.72,-14.489 -5.79,-2.851 -14.37,-1.101 -19.96,-4.14 -6.21,-3.391 -3.26,-10.981 -9.69,-15.141"
         style="fill:#ffffff;fill-opacity:1;fill-rule:evenodd;stroke:none"
         id="path34" /></g></g></svg>
